SplineFontDB: 3.0
FontName: Rokkitt-Light
FullName: Rokkitt Light
FamilyName: Rokkitt
Weight: Light
Copyright: Copyright (c) 2011 by vernon adams. All rights reserved.
Version: 1.000
ItalicAngle: 0
UnderlinePosition: -103
UnderlineWidth: 102
Ascent: 1638
Descent: 410
sfntRevision: 0x00010042
LayerCount: 2
Layer: 0 0 "Back"  1
Layer: 1 0 "Fore"  0
NeedsXUIDChange: 1
XUID: [1021 118 1023546858 13128247]
FSType: 0
OS2Version: 0
OS2_WeightWidthSlopeOnly: 0
OS2_UseTypoMetrics: 1
CreationTime: 1318440780
ModificationTime: 1318448060
PfmFamily: 17
TTFWeight: 300
TTFWidth: 5
LineGap: 0
VLineGap: 0
Panose: 2 0 5 3 5 0 0 2 0 3
OS2TypoAscent: 1650
OS2TypoAOffset: 0
OS2TypoDescent: -433
OS2TypoDOffset: 0
OS2TypoLinegap: 0
OS2WinAscent: 1650
OS2WinAOffset: 0
OS2WinDescent: 433
OS2WinDOffset: 0
HheadAscent: 1650
HheadAOffset: 0
HheadDescent: -433
HheadDOffset: 0
OS2SubXSize: 1331
OS2SubYSize: 1228
OS2SubXOff: 0
OS2SubYOff: 153
OS2SupXSize: 1331
OS2SupYSize: 1228
OS2SupXOff: 0
OS2SupYOff: 716
OS2StrikeYSize: 102
OS2StrikeYPos: 509
OS2Vendor: 'newt'
OS2CodePages: 00000081.00000000
OS2UnicodeRanges: 8000006f.4000204b.00000000.00000000
Lookup: 4 0 1 "'liga' Standard Ligatures lookup 0"  {"'liga' Standard Ligatures lookup 0 subtable"  } ['liga' ('DFLT' <'dflt' > 'latn' <'dflt' > ) ]
Lookup: 258 0 0 "'kern' Horizontal Kerning lookup 0"  {"'kern' Horizontal Kerning lookup 0 subtable" [307,30,0] } ['kern' ('DFLT' <'dflt' > 'latn' <'dflt' > ) ]
MarkAttachClasses: 1
DEI: 91125
ShortTable: maxp 16
  1
  0
  322
  110
  5
  0
  0
  1
  0
  0
  0
  0
  0
  0
  0
  0
EndShort
LangName: 1033 "" "" "" "vernonadams: Rokkitt Light: 2011" "" "Version 1.000" "" "Rokkitt Light is a trademark of vernon adams." "vernon adams" "vernon adams" "Copyright (c) 2011 by vernon adams. All rights reserved." "" "newtypography.co.uk" "" "http://scripts.sil.org/OFL" "" "" "" "Rokkitt Light" 
GaspTable: 3 8 2 16 1 65535 3 0
Encoding: UnicodeBmp
Compacted: 1
UnicodeInterp: none
NameList: Adobe Glyph List

StartChar: exclam
Encoding: 33 33 21
Width: 432
GlyphClass: 2
Flags: HW
LayerCount: 2
Fore
SplineSet
200 344 m 1
 171 809 l 1
 171 1171 l 1
 260 1171 l 1
 260 809 l 1
 231 344 l 1
 200 344 l 1
164 106 m 1
 269 106 l 1
 267 0 l 1
 164 0 l 1
 164 106 l 1
EndSplineSet
EndChar

StartChar: quotedbl
Encoding: 34 34 22
Width: 543
GlyphClass: 2
Flags: HW
LayerCount: 2
Fore
SplineSet
383 854 m 1
 351 854 l 1
 325 1234 l 1
 416 1234 l 1
 383 854 l 1
190 854 m 1
 158 854 l 1
 131 1234 l 1
 223 1234 l 1
 190 854 l 1
EndSplineSet
EndChar

StartChar: numbersign
Encoding: 35 35 23
Width: 1034
GlyphClass: 2
Flags: HW
LayerCount: 2
Fore
SplineSet
269 880 m 1
 298 1234 l 1
 377 1234 l 1
 348 880 l 1
 713 880 l 1
 742 1234 l 1
 821 1234 l 1
 792 880 l 1
 980 880 l 1
 975 821 l 1
 787 821 l 1
 757 457 l 1
 944 457 l 1
 939 398 l 1
 752 398 l 1
 719 0 l 1
 640 0 l 1
 673 398 l 1
 308 398 l 1
 275 0 l 1
 196 0 l 1
 229 398 l 1
 53 398 l 1
 58 457 l 1
 234 457 l 1
 264 821 l 1
 89 821 l 1
 94 880 l 1
 269 880 l 1
313 457 m 1
 678 457 l 1
 708 821 l 1
 343 821 l 1
 313 457 l 1
EndSplineSet
EndChar

StartChar: dollar
Encoding: 36 36 24
Width: 1151
GlyphClass: 2
Flags: HW
LayerCount: 2
Fore
SplineSet
701 -23 m 1
 701 -190 l 1
 641 -190 l 1
 641 -20 l 1
 523 -7.33333333333 410.333333333 36.6666666667 303 112 c 1
 303 0 l 1
 224 0 l 1
 224 416 l 1
 303 416 l 1
 303 196 l 1
 409.666666667 117.333333333 522.333333333 71 641 57 c 1
 641 594 l 1
 495.666666667 608.666666667 391.666666667 637 329 679 c 0
 253 730.333333333 215 810.166666667 215 918.5 c 128
 215 1026.83333333 254.5 1110 333.5 1168 c 128
 412.5 1226 509.333333333 1255 624 1255 c 2
 641 1255 l 1
 641 1421 l 1
 701 1421 l 1
 701 1250 l 1
 789.666666667 1240 879.666666667 1211 971 1163 c 1
 971 1234 l 1
 1050 1234 l 1
 1050 899 l 1
 971 899 l 1
 971 1080 l 1
 886.333333333 1134.66666667 796.333333333 1167.33333333 701 1178 c 1
 701 663 l 1
 947.371526398 634.524898959 1122.40071845 562.125729434 1121 317 c 0
 1120.33333333 235 1090 161.666666667 1030 97 c 0
 956 17 847.333333333 -23 704 -23 c 2
 701 -23 l 1
951.5 508.5 m 128
 897.833333333 546.166666667 814.333333333 572.333333333 701 587 c 1
 701 53 l 1
 706.333333333 52.3333333333 711.666666667 52 717 52 c 2
 764 52 l 2
 832.114507004 52 914.73819816 95.7381981604 953 134 c 0
 1005.66666667 186 1032 252 1032 332 c 128
 1032 412 1005.16666667 470.833333333 951.5 508.5 c 128
637 1182 m 2
 438.90772182 1182 306 1095.62591906 306 909 c 128
 306 824.333333333 337 764 399 728 c 0
 445 701.333333333 525.666666667 682 641 670 c 1
 641 1182 l 1
 637 1182 l 2
EndSplineSet
EndChar

StartChar: percent
Encoding: 37 37 25
Width: 1610
GlyphClass: 2
Flags: HW
LayerCount: 2
Fore
SplineSet
1446 1310 m 1
 1487 1270 l 1
 386 -47 l 1
 341 0 l 1
 1446 1310 l 1
720 949 m 128
 720 1092.019699 612.325970459 1192 474 1192 c 256
 335.69266571 1192 230 1091.95678696 230 949 c 128
 230 806.009787267 335.663463171 706 474 706 c 256
 612.296385719 706 720 806.01358337 720 949 c 128
699 723.5 m 128
 635.666666667 668.5 560.666666667 641 474 641 c 256
 388 641 313.5 668.333333333 250.5 723 c 128
 187.5 777.666666667 156 853.166666667 156 949.5 c 128
 156 1045.83333333 187.5 1120.83333333 250.5 1174.5 c 128
 313.5 1228.16666667 388 1255 474 1255 c 256
 561.333333333 1255 636.5 1228 699.5 1174 c 128
 762.5 1120 794 1045.16666667 794 949.5 c 128
 794 853.833333333 762.333333333 778.5 699 723.5 c 128
1561 283 m 128
 1561 426.019699004 1453.32597046 526 1315 526 c 256
 1176.69266571 526 1071 425.95678696 1071 283 c 128
 1071 140.009787267 1176.66346317 40 1315 40 c 256
 1453.29638572 40 1561 140.01358337 1561 283 c 128
1540 57.5 m 128
 1476.66666667 2.5 1401.66666667 -25 1315 -25 c 256
 1229 -25 1154.5 2.33333333333 1091.5 57 c 128
 1028.5 111.666666667 997 187.166666667 997 283.5 c 128
 997 379.833333333 1028.5 454.833333333 1091.5 508.5 c 128
 1154.5 562.166666667 1229 589 1315 589 c 256
 1402.33333333 589 1477.5 562 1540.5 508 c 128
 1603.5 454 1635 379.166666667 1635 283.5 c 128
 1635 187.833333333 1603.33333333 112.5 1540 57.5 c 128
EndSplineSet
EndChar

StartChar: ampersand
Encoding: 38 38 26
Width: 1161
GlyphClass: 2
Flags: HW
LayerCount: 2
Fore
SplineSet
487 1255 m 128
 639.597468472 1255 769 1168.91449418 769 1024 c 0
 769 910 718.666666667 818.666666667 618 750 c 0
 580 724 532.333333333 699.333333333 475 676 c 1
 824 229 l 1
 828 235 834.666666667 244.333333333 844 257 c 0
 889.333333333 315.666666667 912 400.333333333 912 511 c 1
 1108 511 l 1
 1108 446 l 1
 968 446 l 1
 968 355.333333333 933.333333333 263.666666667 864 171 c 1
 948 68 l 1
 1108 68 l 1
 1108 0 l 1
 914 0 l 1
 812 113 l 1
 717.622181835 7.62670787408 620.572947759 -20.2448738451 447 -23 c 1
 349.666666667 -23 262.833333333 10.8333333333 186.5 78.5 c 128
 110.166666667 146.166666667 72 227.5 72 322.5 c 128
 72 549.094134059 181.494524868 638.542564453 373 702 c 1
 256 863 l 2
 222.666666667 907.666666667 206 960.333333333 206 1021 c 128
 206 1081.66666667 231.666666667 1135.83333333 283 1183.5 c 128
 334.333333333 1231.16666667 402.333333333 1255 487 1255 c 128
145 332 m 0
 145 180.344445152 296.059935301 48 449.5 48 c 128
 620.770578871 48 690.459421322 73.2727593621 773 170 c 1
 410 646 l 1
 266 603.333333333 181.333333333 531.333333333 156 430 c 0
 148 399.333333333 144.333333333 366.666666667 145 332 c 0
489 1183 m 128
 385.242809957 1183 279 1114.88892906 279 1016.5 c 128
 279 972.166666667 293.666666667 929.666666667 323 889 c 2
 440 728 l 1
 581.333333333 782.666666667 662.666666667 850.666666667 684 932 c 0
 690.666666667 959.333333333 694 994 694 1036 c 128
 694 1130.78173543 590.257125979 1183 489 1183 c 128
EndSplineSet
EndChar

StartChar: quotesingle
Encoding: 39 39 27
Width: 350
GlyphClass: 2
Flags: HW
LayerCount: 2
Fore
SplineSet
190 854 m 1
 158 854 l 1
 131 1234 l 1
 223 1234 l 1
 190 854 l 1
EndSplineSet
EndChar

StartChar: parenleft
Encoding: 40 40 28
Width: 580
GlyphClass: 2
Flags: HW
LayerCount: 2
Fore
SplineSet
508 1200 m 1
 304.40372273 1127.34738653 191 915.240435428 191 616 c 256
 191 401.333333333 247.666666667 236.666666667 361 122 c 0
 401 82 450 51.6666666667 508 31 c 1
 508 -37 l 1
 379.333333333 -5 280.166666667 72.5 210.5 195.5 c 128
 140.833333333 318.5 106 458.666666667 106 616 c 256
 106 865.333333333 181.333333333 1053.33333333 332 1180 c 0
 382.666666667 1222.66666667 441.333333333 1252 508 1268 c 1
 508 1200 l 1
EndSplineSet
EndChar

StartChar: parenright
Encoding: 41 41 29
Width: 588
GlyphClass: 2
Flags: HW
LayerCount: 2
Fore
SplineSet
394 616 m 256
 394 900.226217859 291.467753457 1120.57013825 78 1200 c 1
 78 1268 l 1
 206 1236 305 1158.5 375 1035.5 c 128
 445 912.5 480 772.666666667 480 616 c 256
 480 366.666666667 404.666666667 178.666666667 254 52 c 0
 203.333333333 9.33333333333 144.666666667 -20.3333333333 78 -37 c 1
 78 31 l 1
 281.690173954 104.53130761 394 317.006214404 394 616 c 256
EndSplineSet
EndChar

StartChar: asterisk
Encoding: 42 42 30
Width: 934
GlyphClass: 2
Flags: HW
LayerCount: 2
Fore
SplineSet
517 1229 m 1
 485 818 l 1
 859 992 l 1
 890 906 l 1
 494 785 l 1
 763 472 l 1
 687 415 l 1
 467 761 l 1
 246 415 l 1
 170 472 l 1
 439 785 l 1
 43 906 l 1
 74 992 l 1
 449 818 l 1
 416 1229 l 1
 517 1229 l 1
EndSplineSet
EndChar

StartChar: plus
Encoding: 43 43 31
Width: 811
GlyphClass: 2
Flags: HW
LayerCount: 2
Fore
SplineSet
439 598 m 1
 794 598 l 1
 794 534 l 1
 439 534 l 1
 439 138 l 1
 377 138 l 1
 377 534 l 1
 20 534 l 1
 20 598 l 1
 377 598 l 1
 377 982 l 1
 439 982 l 1
 439 598 l 1
EndSplineSet
EndChar

StartChar: comma
Encoding: 44 44 32
Width: 412
GlyphClass: 2
Flags: HW
LayerCount: 2
Fore
SplineSet
274 116 m 1
 274 -6 l 2
 274 -122 229 -180 139 -180 c 1
 139 -136 l 1
 203.625373386 -115.374880834 210 -90.0727913228 210 -4 c 1
 148 -4 l 1
 148 116 l 1
 274 116 l 1
EndSplineSet
EndChar

StartChar: hyphen
Encoding: 45 45 33
Width: 786
GlyphClass: 2
Flags: HW
LayerCount: 2
Fore
SplineSet
661 413 m 1
 131 413 l 1
 131 475 l 1
 661 475 l 1
 661 413 l 1
EndSplineSet
EndChar

StartChar: period
Encoding: 46 46 34
Width: 403
GlyphClass: 2
Flags: HW
LayerCount: 2
Fore
SplineSet
263 120 m 1
 263 0 l 1
 147 0 l 1
 147 120 l 1
 263 120 l 1
EndSplineSet
EndChar

StartChar: slash
Encoding: 47 47 35
Width: 537
GlyphClass: 2
Flags: HW
LayerCount: 2
Fore
SplineSet
415 1255 m 1
 486 1255 l 1
 118 -23 l 1
 43 -23 l 1
 415 1255 l 1
EndSplineSet
EndChar

StartChar: zero
Encoding: 48 48 36
Width: 1124
GlyphClass: 2
Flags: HW
LayerCount: 2
Fore
SplineSet
561 -23 m 256
 230.550220303 -23 113 268.824228322 113 616 c 0
 113 914.666666667 194.333333333 1111.33333333 357 1206 c 0
 413.666666667 1239.33333333 481.666666667 1255.66666667 561 1255 c 256
 712.333333333 1255 824.833333333 1196 898.5 1078 c 128
 972.166666667 960 1009 806 1009 616 c 0
 1009 316 927.666666667 119.333333333 765 26 c 0
 708.333333333 -6 640.333333333 -22.3333333333 561 -23 c 256
561 48 m 256
 852.687464566 48 925 293.050659018 925 616 c 0
 925 993.333333333 803.666666667 1182 561 1182 c 128
 318.333333333 1182 197 993.333333333 197 616 c 0
 197 424.666666667 226.166666667 282.166666667 284.5 188.5 c 128
 342.833333333 94.8333333333 435 48 561 48 c 256
EndSplineSet
EndChar

StartChar: one
Encoding: 49 49 37
Width: 598
GlyphClass: 2
Flags: HW
LayerCount: 2
Fore
SplineSet
529 62 m 1
 529 0 l 1
 102 0 l 1
 102 62 l 1
 279 62 l 1
 279 1147 l 1
 123 1118 l 1
 106 1186 l 1
 360 1234 l 1
 360 62 l 1
 529 62 l 1
EndSplineSet
EndChar

StartChar: two
Encoding: 50 50 38
Width: 993
GlyphClass: 2
Flags: HW
LayerCount: 2
Fore
SplineSet
793 932 m 128
 793 1071.5160057 681.753235046 1183 546 1183 c 0
 386 1183.66666667 283.333333333 1128 238 1016 c 0
 223.333333333 980 216 941 216 899 c 128
 216 857 221.333333333 816.666666667 232 778 c 1
 147 778 l 1
 139 815.333333333 135 858 135 906 c 0
 135 1117.8246108 298.981733949 1255 515 1255 c 0
 685 1255 797.333333333 1188.66666667 852 1056 c 0
 891.982808023 957.580780251 887.453899976 859.016183286 838.413275861 760.306209105 c 0
 789.372651746 661.596234924 713.896367216 559.273855396 611.984422271 453.339070519 c 0
 510.072477326 347.404285642 425.097087378 264.197411003 357.058252427 203.718446602 c 128
 289.019417476 143.239482201 243 101.333333333 219 78 c 1
 819 78 l 1
 819 0 l 1
 109 0 l 1
 109 80 l 1
 123 94.6666666667 143.666666667 114 171 138 c 0
 431.666666667 370 600.5 542 677.5 654 c 128
 754.5 766 793 858.666666667 793 932 c 128
EndSplineSet
EndChar

StartChar: three
Encoding: 51 51 39
Width: 997
GlyphClass: 2
Flags: HW
LayerCount: 2
Fore
SplineSet
636 660 m 1
 778.945217824 625.965424328 876 518.525555991 876 336 c 0
 876 237.333333333 834 153.5 750 84.5 c 128
 666 15.5 562.166666667 -19 438.5 -19 c 128
 270.873795954 -19 114.846512018 77.2519925325 49 216 c 1
 113 257 l 1
 182.333333333 119 299.666666667 50 465 50 c 0
 553 50 629.5 77.8333333333 694.5 133.5 c 128
 759.5 189.166666667 792 260.666666667 792 348 c 0
 792 517.333333333 682.666666667 606.333333333 464 615 c 0
 429.333333333 616.333333333 395.666666667 617 363 617 c 2
 324 617 l 1
 324 697 l 1
 418 697 l 2
 595.333333333 697 705.333333333 739.666666667 748 825 c 0
 761.333333333 852.333333333 768.333333333 887.333333333 769 930 c 0
 769 1010 737.166666667 1072.16666667 673.5 1116.5 c 128
 609.833333333 1160.83333333 537 1183 455 1183 c 0
 301.666666667 1183 198.333333333 1130.66666667 145 1026 c 1
 74 1057 l 1
 142.666666667 1189.66666667 270.333333333 1256 457 1256 c 0
 561.666666667 1256 654 1226.66666667 734 1168 c 128
 814 1109.33333333 854 1030.16666667 854 930.5 c 128
 854 797.049977231 762.495908187 697.679632226 636 660 c 1
EndSplineSet
EndChar

StartChar: four
Encoding: 52 52 40
Width: 895
GlyphClass: 2
Flags: HW
LayerCount: 2
Fore
SplineSet
4 442 m 1
 489 1234 l 1
 603 1234 l 1
 603 442 l 1
 860 442 l 1
 860 379 l 1
 603 379 l 1
 603 62 l 1
 764 62 l 1
 764 0 l 1
 361 0 l 1
 361 62 l 1
 522 62 l 1
 522 379 l 1
 15 379 l 1
 4 442 l 1
522 442 m 1
 522 1156 l 1
 97 442 l 1
 522 442 l 1
EndSplineSet
EndChar

StartChar: five
Encoding: 53 53 41
Width: 1022
GlyphClass: 2
Flags: HW
LayerCount: 2
Fore
SplineSet
123 217 m 1
 194.333333333 107.666666667 318.833333333 52.8333333333 496.5 52.5 c 0
 674.166666667 52.1666666667 790 112.666666667 844 234 c 0
 862.666666667 275.333333333 872 334.333333333 872 411 c 128
 872 487.666666667 845.166666667 559.5 791.5 626.5 c 128
 737.833333333 693.5 664.333333333 727 571 727 c 0
 421 727 303 704.666666667 217 660 c 1
 165 685 l 1
 165 1234 l 1
 813 1234 l 1
 812 1164 l 1
 244 1164 l 1
 235 748 l 1
 307.666666667 780 395.333333333 796 498 796 c 128
 600.666666667 796 676.666666667 785.333333333 726 764 c 0
 879.333333333 698 956 568.333333333 956 375 c 0
 956 250.333333333 912.5 153.666666667 825.5 85 c 128
 738.5 16.3333333333 629 -18 497 -18 c 0
 303 -18 162.666666667 42.3333333333 76 163 c 1
 123 217 l 1
EndSplineSet
EndChar

StartChar: six
Encoding: 54 54 42
Width: 885
GlyphClass: 2
Flags: HW
LayerCount: 2
Fore
SplineSet
441 49 m 256
 630.757776774 49 758 177.195316127 758 362.5 c 128
 758 452.166666667 727.166666667 523.833333333 665.5 577.5 c 128
 603.833333333 631.166666667 542 658 480 658 c 0
 278.561133212 658 130 549.802567897 130 356.5 c 128
 130 266.166666667 149.333333333 200.666666667 188 160 c 0
 257.333333333 86 341.666666667 49 441 49 c 256
446 726 m 0
 659.690036279 726 839 574.911453498 839 364 c 128
 839 260.666666667 803.5 170.333333333 732.5 93 c 128
 661.5 15.6666666667 569.833333333 -23 457.5 -23 c 128
 345.166666667 -23 249.666666667 11.6666666667 171 81 c 128
 92.3333333333 150.333333333 53 233.666666667 53 331 c 128
 53 428.333333333 98 550.333333333 188 697 c 1
 545 1361 l 1
 612 1314 l 1
 261 678 l 1
 325.666666667 710 387.333333333 726 446 726 c 0
EndSplineSet
EndChar

StartChar: seven
Encoding: 55 55 43
Width: 897
GlyphClass: 2
Flags: HW
LayerCount: 2
Fore
SplineSet
368 52 m 1
 368 482 506 852.666666667 782 1164 c 1
 155 1164 l 1
 155 916 l 1
 78 916 l 1
 78 1234 l 1
 870 1234 l 1
 870 1158 l 1
 640.666666667 908.666666667 506.666666667 638.666666667 468 348 c 0
 456 254.666666667 450 156 450 52 c 1
 631 52 l 1
 631 -11 l 1
 204 -11 l 1
 204 52 l 1
 368 52 l 1
EndSplineSet
EndChar

StartChar: eight
Encoding: 56 56 44
Width: 1042
GlyphClass: 2
Flags: HW
LayerCount: 2
Fore
SplineSet
111 328.5 m 0
 111.868514069 480.924219045 220.541138179 612.108227636 380 644 c 1
 228 690.666666667 152 791.333333333 152 946 c 0
 152 1026.66666667 185.166666667 1098.33333333 251.5 1161 c 128
 317.833333333 1223.66666667 408.333333333 1255 523 1255 c 256
 734.92086253 1255 894 1128.23216804 894 925.5 c 0
 894 797.027598755 796.170948558 681.191699588 666 644 c 1
 823.695176089 612.798280667 934 499.558332333 934 304 c 0
 934 204 893.5 124.333333333 812.5 65 c 128
 731.5 5.66666666667 635 -24 523 -24 c 128
 411 -24 314.333333333 5.5 233 64.5 c 128
 151.666666667 123.5 111 211.5 111 328.5 c 0
523 596 m 256
 421 596 340.833333333 568.666666667 282.5 514 c 128
 224.166666667 459.333333333 195 402 195 342 c 0
 195 242.666666667 227.5 169 292.5 121 c 128
 357.5 73 434.166666667 49 522.5 49 c 128
 610.833333333 49 687.5 73 752.5 121 c 128
 817.5 169 850 236 850 322 c 0
 850 440 788.333333333 523.333333333 665 572 c 0
 624.333333333 588 577 596 523 596 c 256
523 1182 m 256
 386.333333333 1182 297 1130.66666667 255 1028 c 0
 243 998.666666667 237 968.333333333 237 937 c 256
 237 867.666666667 255 815 291 779 c 0
 356.333333333 712.333333333 433.666666667 679 523 679 c 256
 658.333333333 679.666666667 747.333333333 734.666666667 790 844 c 0
 802 874.666666667 808 905.666666667 808 937 c 256
 808 1004.33333333 790.333333333 1055 755 1089 c 0
 691.666666667 1151 614.333333333 1182 523 1182 c 256
EndSplineSet
EndChar

StartChar: nine
Encoding: 57 57 45
Width: 952
GlyphClass: 2
Flags: HW
LayerCount: 2
Fore
SplineSet
480 1183 m 128
 289.003566497 1183 163 1055.02128001 163 869.5 c 128
 163 780.5 193.833333333 709.166666667 255.5 655.5 c 128
 317.166666667 601.833333333 390.333333333 575 475 575 c 256
 560.333333333 575.666666667 625 595.333333333 669 634 c 0
 750.333333333 705.333333333 791 785.666666667 791 875 c 0
 791.666666667 964.333333333 772.666666667 1029.66666667 734 1071 c 0
 664.666666667 1145.66666667 580 1183 480 1183 c 128
474 506 m 0
 260.273596055 506 82 657.081103121 82 868 c 128
 82 971.333333333 117.5 1061.66666667 188.5 1139 c 128
 259.5 1216.33333333 351 1255 463 1255 c 128
 575 1255 670.5 1220.16666667 749.5 1150.5 c 128
 828.5 1080.83333333 868 999.166666667 868 905.5 c 128
 868 811.833333333 823 688.333333333 733 535 c 1
 376 -128 l 1
 308 -82 l 1
 660 554 l 1
 594.666666667 522 532.666666667 506 474 506 c 0
EndSplineSet
EndChar

StartChar: colon
Encoding: 58 58 46
Width: 416
GlyphClass: 2
Flags: HW
LayerCount: 2
Fore
SplineSet
267 815 m 1
 267 695 l 1
 150 695 l 1
 150 815 l 1
 267 815 l 1
267 314 m 1
 267 194 l 1
 150 194 l 1
 150 314 l 1
 267 314 l 1
EndSplineSet
EndChar

StartChar: semicolon
Encoding: 59 59 47
Width: 440
GlyphClass: 2
Flags: HW
LayerCount: 2
Fore
SplineSet
292 316 m 1
 292 193 l 2
 292 77 246.666666667 19 156 19 c 1
 156 64 l 1
 220.983921199 84.7395493189 227 109.04289191 227 196 c 1
 166 196 l 1
 166 316 l 1
 292 316 l 1
287 815 m 1
 287 695 l 1
 170 695 l 1
 170 815 l 1
 287 815 l 1
EndSplineSet
EndChar

StartChar: less
Encoding: 60 60 48
Width: 907
GlyphClass: 2
Flags: HW
LayerCount: 2
Fore
SplineSet
-18 613 m 1
 829 1255 l 1
 829 1162 l 1
 96 613 l 1
 829 68 l 1
 829 -23 l 1
 -18 613 l 1
EndSplineSet
EndChar

StartChar: equal
Encoding: 61 61 49
Width: 791
GlyphClass: 2
Flags: HW
LayerCount: 2
Fore
SplineSet
652 634 m 1
 143 634 l 1
 143 696 l 1
 652 696 l 1
 652 634 l 1
652 356 m 1
 143 356 l 1
 143 419 l 1
 652 419 l 1
 652 356 l 1
EndSplineSet
EndChar

StartChar: greater
Encoding: 62 62 50
Width: 909
GlyphClass: 2
Flags: HW
LayerCount: 2
Fore
SplineSet
86 -23 m 1
 86 68 l 1
 819 613 l 1
 86 1162 l 1
 86 1255 l 1
 933 613 l 1
 86 -23 l 1
EndSplineSet
EndChar

StartChar: question
Encoding: 63 63 51
Width: 727
GlyphClass: 2
Flags: HW
LayerCount: 2
Fore
SplineSet
325 1151 m 0
 203 1151 121.666666667 1102 81 1004 c 1
 20 1040 l 1
 70.6666666667 1162 169 1223.16666667 315 1223.5 c 0
 505.228609446 1223.93431189 642 1115.68436318 642 906 c 128
 642 848.666666667 629.666666667 802 605 766 c 128
 580.333333333 730 541.833333333 689.333333333 489.5 644 c 128
 437.166666667 598.666666667 395.833333333 550.5 365.5 499.5 c 128
 335.166666667 448.5 317.666666667 378.333333333 313 289 c 1
 280 289 l 1
 280 459 327.333333333 587.333333333 422 674 c 0
 484 730.666666667 523.333333333 775.5 540 808.5 c 128
 556.666666667 841.5 565 884.666666667 565 938 c 128
 565 991.333333333 544.166666667 1040.16666667 502.5 1084.5 c 128
 460.833333333 1128.83333333 401.666666667 1151 325 1151 c 0
349 -23 m 1
 265 -23 l 1
 265 56 l 1
 349 56 l 1
 349 -23 l 1
EndSplineSet
EndChar

StartChar: at
Encoding: 64 64 52
Width: 1458
GlyphClass: 2
Flags: HW
LayerCount: 2
Fore
SplineSet
983 252 m 0
 926.914615884 252 888 306.474817593 888 377.5 c 128
 888 397.833333333 889 413.333333333 891 424 c 1
 814.333333333 309.333333333 727 252 629 252 c 0
 561 252 509.333333333 271.333333333 474 310 c 0
 409.333333333 381.333333333 377 468.5 377 571.5 c 128
 377 674.5 408.166666667 768.833333333 470.5 854.5 c 128
 532.833333333 940.166666667 619 983 729 983 c 128
 839 983 917.333333333 935.333333333 964 840 c 1
 988 962 l 1
 1075 962 l 1
 953 402 l 2
 951.666666667 395.333333333 951 386.333333333 951 375 c 128
 951 344.690630014 982.223783607 325 1017.5 325 c 128
 1039.83333333 325 1072.66666667 341.666666667 1116 375 c 128
 1198.12244987 438.171115281 1278 572.037302768 1278 716 c 0
 1278 852.666666667 1232.16666667 966.5 1140.5 1057.5 c 128
 1048.83333333 1148.5 920.5 1194 755.5 1194 c 128
 590.5 1194 452 1136.83333333 340 1022.5 c 128
 228 908.166666667 172 764.166666667 172 590.5 c 128
 172 242.253898403 407.418582848 26 756.5 26 c 128
 932.833333333 26 1072 61.6666666667 1174 133 c 1
 1211 83 l 1
 1099.66666667 -1 957 -43 783 -43 c 0
 484.333333333 -43 276.333333333 65 159 281 c 0
 109 373 84 461 84 545 c 0
 84 827.666666667 190.666666667 1035.33333333 404 1168 c 0
 508 1232.66666667 621.333333333 1265 744 1265 c 0
 956.666666667 1265 1112 1213 1210 1109 c 128
 1308 1005 1357 885.833333333 1357 751.5 c 128
 1357 617.166666667 1318.16666667 500.333333333 1240.5 401 c 128
 1162.83333333 301.666666667 1077 252 983 252 c 0
921 678 m 128
 921 811.226650644 856.927154687 913 737 913 c 0
 651.666666667 913 586 876.333333333 540 803 c 128
 494 729.666666667 471 653.5 471 574.5 c 128
 471 444.762108501 527.341797343 318 644 318 c 0
 725.333333333 318 791.833333333 358.333333333 843.5 439 c 128
 895.166666667 519.666666667 921 599.333333333 921 678 c 128
EndSplineSet
EndChar

StartChar: A
Encoding: 65 65 53
Width: 1321
GlyphClass: 2
Flags: HW
LayerCount: 2
Fore
SplineSet
872 1234 m 1
 872 1171 l 1
 715 1171 l 1
 1130 62 l 1
 1288 62 l 1
 1288 0 l 1
 885 0 l 1
 885 62 l 1
 1044 62 l 1
 884 503 l 1
 409 503 l 1
 249 62 l 1
 408 62 l 1
 408 0 l 1
 4 0 l 1
 4 62 l 1
 163 62 l 1
 579 1171 l 1
 421 1171 l 1
 421 1234 l 1
 872 1234 l 1
430 564 m 1
 861 564 l 1
 646 1153 l 1
 430 564 l 1
EndSplineSet
EndChar

StartChar: B
Encoding: 66 66 54
Width: 1233
GlyphClass: 2
Flags: HW
LayerCount: 2
Fore
SplineSet
940 654 m 1
 1086.36994304 612.88484746 1179.76938843 508.683636443 1183 331 c 1
 1183 244.333333333 1150.83333333 167.5 1086.5 100.5 c 128
 1022.16666667 33.5 933.333333333 0 820 0 c 2
 101 0 l 1
 101 62 l 1
 254 62 l 1
 254 1171 l 1
 88 1171 l 1
 88 1234 l 1
 748 1234 l 2
 862 1234 951 1203.83333333 1015 1143.5 c 128
 1079 1083.16666667 1111 1012.33333333 1111 931 c 0
 1111 806.333333333 1054 714 940 654 c 1
820 62 m 2
 908.666666667 62 978 89.3333333333 1028 144 c 128
 1078 198.666666667 1103 263 1103 337 c 128
 1103 411 1076.5 475.5 1023.5 530.5 c 128
 970.5 585.5 897.666666667 613 805 613 c 2
 335 613 l 1
 335 62 l 1
 820 62 l 2
796 678 m 2
 946.596919695 678 1031 780.238926453 1031 954.5 c 128
 1031 1003.5 1006.16666667 1051.83333333 956.5 1099.5 c 128
 906.833333333 1147.16666667 837.333333333 1171 748 1171 c 2
 335 1171 l 1
 335 678 l 1
 796 678 l 2
EndSplineSet
EndChar

StartChar: C
Encoding: 67 67 55
Width: 1341
GlyphClass: 2
Flags: HW
LayerCount: 2
Fore
SplineSet
1275 283 m 1
 1156.33333333 79 965 -23 701 -23 c 0
 538.333333333 -23 393.833333333 32.8333333333 267.5 144.5 c 128
 141.166666667 256.166666667 78 408.5 78 601.5 c 128
 78 794.5 137.666666667 951.666666667 257 1073 c 128
 376.333333333 1194.33333333 534.5 1255 731.5 1255 c 128
 928.5 1255 1081.66666667 1179 1191 1027 c 1
 1191 1234 l 1
 1266 1234 l 1
 1266 887 l 1
 1204 874 l 1
 1142.66666667 1012.66666667 1037.33333333 1106.66666667 888 1156 c 0
 836 1173.33333333 772.666666667 1182 698 1182 c 0
 542.666666667 1182 414.5 1126.83333333 313.5 1016.5 c 128
 212.5 906.166666667 162 773.166666667 162 617.5 c 128
 162 461.833333333 210 328 306 216 c 128
 402 104 539.333333333 48 718 48 c 0
 940.666666667 48 1103.33333333 143.333333333 1206 334 c 1
 1275 283 l 1
EndSplineSet
EndChar

StartChar: D
Encoding: 68 68 56
Width: 1409
GlyphClass: 2
Flags: HW
LayerCount: 2
Fore
SplineSet
793 1234 m 2
 1021.66666667 1234 1183.33333333 1126.66666667 1278 912 c 0
 1318 820.666666667 1338 729 1338 637 c 0
 1338 455 1290 303.333333333 1194 182 c 128
 1098 60.6666666667 964.333333333 0 793 0 c 2
 100 0 l 1
 100 62 l 1
 266 62 l 1
 266 1171 l 1
 100 1171 l 1
 100 1234 l 1
 793 1234 l 2
348 1171 m 1
 348 62 l 1
 792 62 l 2
 938.666666667 62 1052.33333333 116.666666667 1133 226 c 128
 1213.66666667 335.333333333 1254 465.333333333 1254 616 c 0
 1254 828 1185.66666667 985.333333333 1049 1088 c 0
 976.333333333 1142.66666667 890.666666667 1170.33333333 792 1171 c 2
 348 1171 l 1
EndSplineSet
EndChar

StartChar: E
Encoding: 69 69 57
Width: 1249
GlyphClass: 2
Flags: HW
LayerCount: 2
Fore
SplineSet
355 1164 m 1
 355 666 l 1
 788 666 l 1
 788 824 l 1
 855 824 l 1
 855 424 l 1
 788 424 l 1
 788 596 l 1
 355 596 l 1
 355 70 l 1
 1040 70 l 1
 1040 376 l 1
 1117 376 l 1
 1117 0 l 1
 98 0 l 1
 98 70 l 1
 273 70 l 1
 273 1164 l 1
 98 1164 l 1
 98 1234 l 1
 1095 1234 l 1
 1095 858 l 1
 1019 858 l 1
 1019 1164 l 1
 355 1164 l 1
EndSplineSet
EndChar

StartChar: F
Encoding: 70 70 58
Width: 1137
GlyphClass: 2
Flags: HW
LayerCount: 2
Fore
SplineSet
355 1164 m 1
 355 643 l 1
 848 643 l 1
 848 817 l 1
 915 817 l 1
 915 404 l 1
 848 404 l 1
 848 577 l 1
 355 577 l 1
 355 70 l 1
 557 70 l 1
 557 0 l 1
 98 0 l 1
 98 70 l 1
 273 70 l 1
 273 1164 l 1
 98 1164 l 1
 98 1234 l 1
 1103 1234 l 1
 1103 858 l 1
 1026 858 l 1
 1026 1164 l 1
 355 1164 l 1
EndSplineSet
EndChar

StartChar: G
Encoding: 71 71 59
Width: 1356
GlyphClass: 2
Flags: HW
LayerCount: 2
Fore
SplineSet
1180 898 m 1
 1092 1087.33333333 930.666666667 1182 696 1182 c 0
 542 1182 414.5 1126.83333333 313.5 1016.5 c 128
 212.5 906.166666667 162 772.833333333 162 616.5 c 128
 162 460.166666667 210 326.333333333 306 215 c 128
 402 103.666666667 539.666666667 48 719 48 c 0
 1004.75534244 48 1203.05835888 226.24484194 1210 523 c 1
 945 523 l 1
 945 589 l 1
 1294 589 l 1
 1294 304.333333333 1187.66666667 117.333333333 975 28 c 0
 895.666666667 -5.33333333333 818.333333333 -22.3333333333 743 -23 c 0
 481.666666667 -23 290.333333333 74 169 268 c 0
 108.333333333 365.333333333 78 493.5 78 652.5 c 128
 78 811.5 137.666666667 951.666666667 257 1073 c 128
 376.333333333 1194.33333333 531.5 1255 722.5 1255 c 128
 913.5 1255 1061.66666667 1187 1167 1051 c 1
 1167 1234 l 1
 1242 1234 l 1
 1242 898 l 1
 1180 898 l 1
EndSplineSet
EndChar

StartChar: H
Encoding: 72 72 60
Width: 1475
GlyphClass: 2
Flags: HW
LayerCount: 2
Fore
SplineSet
1360 1234 m 1
 1360 1171 l 1
 1220 1171 l 1
 1220 62 l 1
 1360 62 l 1
 1360 0 l 1
 991 0 l 1
 991 62 l 1
 1139 62 l 1
 1139 598 l 1
 337 598 l 1
 337 62 l 1
 492 62 l 1
 492 0 l 1
 104 0 l 1
 104 62 l 1
 256 62 l 1
 256 1171 l 1
 104 1171 l 1
 104 1234 l 1
 492 1234 l 1
 492 1171 l 1
 337 1171 l 1
 337 661 l 1
 1139 661 l 1
 1139 1171 l 1
 991 1171 l 1
 991 1234 l 1
 1360 1234 l 1
EndSplineSet
EndChar

StartChar: I
Encoding: 73 73 61
Width: 612
GlyphClass: 2
Flags: HW
LayerCount: 2
Fore
SplineSet
505 1234 m 1
 505 1171 l 1
 345 1171 l 1
 345 62 l 1
 505 62 l 1
 505 0 l 1
 102 0 l 1
 102 62 l 1
 263 62 l 1
 263 1171 l 1
 102 1171 l 1
 102 1234 l 1
 505 1234 l 1
EndSplineSet
EndChar

StartChar: J
Encoding: 74 74 62
Width: 461
GlyphClass: 2
Flags: HW
LayerCount: 2
Fore
SplineSet
107 -41 m 2
 172.18930946 -41 181 -0.771206312402 181 59 c 2
 181 1174 l 1
 42 1174 l 1
 42 1234 l 1
 402 1234 l 1
 402 1174 l 1
 263 1174 l 1
 263 60 l 2
 263.666666667 -40.6666666667 226 -93.6666666667 150 -99 c 0
 130 -100.333333333 111.333333333 -101 94 -101 c 2
 23 -101 l 1
 23 -41 l 1
 107 -41 l 2
EndSplineSet
EndChar

StartChar: K
Encoding: 75 75 63
Width: 1317
GlyphClass: 2
Flags: HW
LayerCount: 2
Fore
SplineSet
506 1234 m 1
 506 1174 l 1
 345 1174 l 1
 345 642 l 1
 941 1174 l 1
 788 1174 l 1
 788 1234 l 1
 1220 1234 l 1
 1220 1174 l 1
 1047 1174 l 1
 447 634 l 1
 1107 60 l 1
 1277 60 l 1
 1277 0 l 1
 822 0 l 1
 822 60 l 1
 989 60 l 1
 345 625 l 1
 345 60 l 1
 506 60 l 1
 506 0 l 1
 102 0 l 1
 102 60 l 1
 263 60 l 1
 263 1174 l 1
 102 1174 l 1
 102 1234 l 1
 506 1234 l 1
EndSplineSet
EndChar

StartChar: L
Encoding: 76 76 64
Width: 1149
GlyphClass: 2
Flags: HW
LayerCount: 2
Fore
SplineSet
471 1234 m 1
 471 1174 l 1
 332 1174 l 1
 332 70 l 1
 960 70 l 1
 960 412 l 1
 1036 412 l 1
 1036 0 l 1
 111 0 l 1
 111 70 l 1
 250 70 l 1
 250 1174 l 1
 111 1174 l 1
 111 1234 l 1
 471 1234 l 1
EndSplineSet
EndChar

StartChar: M
Encoding: 77 77 65
Width: 1663
GlyphClass: 2
Flags: HW
LayerCount: 2
Fore
SplineSet
342 1088 m 1
 342 62 l 1
 503 62 l 1
 503 0 l 1
 102 0 l 1
 102 62 l 1
 263 62 l 1
 263 1171 l 1
 102 1171 l 1
 102 1234 l 1
 358 1234 l 1
 839 239 l 1
 1300 1234 l 1
 1556 1234 l 1
 1556 1171 l 1
 1395 1171 l 1
 1395 62 l 1
 1556 62 l 1
 1556 0 l 1
 1155 0 l 1
 1155 62 l 1
 1316 62 l 1
 1316 1088 l 1
 839 78 l 1
 342 1088 l 1
EndSplineSet
EndChar

StartChar: N
Encoding: 78 78 66
Width: 1473
GlyphClass: 2
Flags: HW
LayerCount: 2
Fore
SplineSet
342 1234 m 1
 1186 125 l 1
 1186 1171 l 1
 1025 1171 l 1
 1025 1234 l 1
 1426 1234 l 1
 1426 1171 l 1
 1265 1171 l 1
 1265 0 l 1
 1186 0 l 1
 342 1114 l 1
 342 62 l 1
 503 62 l 1
 503 0 l 1
 102 0 l 1
 102 62 l 1
 263 62 l 1
 263 1171 l 1
 102 1171 l 1
 102 1234 l 1
 342 1234 l 1
EndSplineSet
EndChar

StartChar: O
Encoding: 79 79 67
Width: 1427
GlyphClass: 2
Flags: HW
LayerCount: 2
Fore
SplineSet
716.5 1182 m 128
 474.768784173 1182 306.217590904 1055.2486113 225.5 890 c 128
 183.166666667 803.333333333 162 717.666666667 162 633 c 0
 162 465 210.5 325.5 307.5 214.5 c 128
 404.5 103.5 541.333333333 48 718 48 c 0
 948.666666667 48 1113.33333333 146 1212 342 c 0
 1253.33333333 426 1274 504 1274 576 c 0
 1274 818 1189 993 1019 1101 c 0
 934.333333333 1155 833.5 1182 716.5 1182 c 128
718 -23 m 256
 516 -23 358.833333333 39.8333333333 246.5 165.5 c 128
 134.166666667 291.166666667 78 440.166666667 78 612.5 c 128
 78 784.833333333 134.166666667 935 246.5 1063 c 128
 358.833333333 1191 516 1255 718 1255 c 256
 986 1255 1175.33333333 1144 1286 922 c 0
 1334 826.666666667 1358 731.333333333 1358 636 c 0
 1358 448 1301.83333333 291.166666667 1189.5 165.5 c 128
 1077.16666667 39.8333333333 920 -23 718 -23 c 256
EndSplineSet
EndChar

StartChar: P
Encoding: 80 80 68
Width: 1184
GlyphClass: 2
Flags: HW
LayerCount: 2
Fore
SplineSet
101 62 m 1
 254 62 l 1
 254 1171 l 1
 88 1171 l 1
 88 1234 l 1
 769 1234 l 2
 883 1234 971.833333333 1199 1035.5 1129 c 128
 1099.16666667 1059 1131 976.166666667 1131 880.5 c 128
 1131 784.833333333 1099.16666667 700.333333333 1035.5 627 c 128
 971.833333333 553.666666667 883 517 769 517 c 2
 335 517 l 1
 335 62 l 1
 505 62 l 1
 505 0 l 1
 101 0 l 1
 101 62 l 1
335 582 m 1
 769 582 l 2
 857.666666667 582 927 611.666666667 977 671 c 128
 1027 730.333333333 1052 800 1052 880 c 128
 1052 960 1027 1028.5 977 1085.5 c 128
 927 1142.5 857.666666667 1171 769 1171 c 2
 335 1171 l 1
 335 582 l 1
EndSplineSet
EndChar

StartChar: Q
Encoding: 81 81 69
Width: 1425
GlyphClass: 2
Flags: HW
LayerCount: 2
Fore
SplineSet
422 38 m 1
 192.666666667 144.666666667 78 349.333333333 78 652 c 0
 78 736.666666667 102.5 828 151.5 926 c 128
 245.588002915 1114.17600583 439.794988426 1255 718 1255 c 256
 986 1255 1175.33333333 1144 1286 922 c 0
 1334 827.333333333 1358 733.333333333 1358 640 c 0
 1358 462 1308.5 311.833333333 1209.5 189.5 c 128
 1110.5 67.1666666667 972 -2.33333333333 794 -19 c 1
 898.666666667 -78.3333333333 977.166666667 -108 1029.5 -108 c 128
 1081.83333333 -108 1127.66666667 -100 1167 -84 c 1
 1192 -157 l 1
 1140 -173 1093.83333333 -181 1053.5 -181 c 128
 865.386785277 -181 780.343401411 -73.7340415792 639.5 -25.5 c 128
 615.166666667 -17.1666666667 575.5 -13 520.5 -13 c 128
 465.5 -13 393 -34.6666666667 303 -78 c 1
 285 -7 l 1
 333.666666667 13 379.333333333 28 422 38 c 1
716.5 1182 m 128
 474.768784173 1182 306.217590904 1055.2486113 225.5 890 c 128
 183.166666667 803.333333333 162 717.666666667 162 633 c 0
 162 465 210.5 325.5 307.5 214.5 c 128
 404.5 103.5 541.333333333 48 718 48 c 0
 948.666666667 48 1113.33333333 146 1212 342 c 0
 1253.33333333 426 1274 504 1274 576 c 0
 1274 818 1189 993 1019 1101 c 0
 934.333333333 1155 833.5 1182 716.5 1182 c 128
EndSplineSet
EndChar

StartChar: R
Encoding: 82 82 70
Width: 1274
GlyphClass: 2
Flags: HW
LayerCount: 2
Fore
SplineSet
101 62 m 1
 254 62 l 1
 254 1171 l 1
 88 1171 l 1
 88 1234 l 1
 728 1234 l 2
 842 1234 930.833333333 1201.5 994.5 1136.5 c 128
 1058.16666667 1071.5 1090 995 1090 907 c 256
 1090 819 1058.16666667 742 994.5 676 c 128
 930.833333333 610 842 577 728 577 c 2
 727 577 l 1
 1043 62 l 1
 1217 62 l 1
 1217 0 l 1
 985 0 l 1
 643 577 l 1
 335 577 l 1
 335 62 l 1
 505 62 l 1
 505 0 l 1
 101 0 l 1
 101 62 l 1
728 642 m 2
 904.865536682 642 1011 740.966128856 1011 934.5 c 128
 1011 987.5 986.166666667 1040.16666667 936.5 1092.5 c 128
 886.833333333 1144.83333333 817.333333333 1171 728 1171 c 2
 335 1171 l 1
 335 642 l 1
 728 642 l 2
EndSplineSet
EndChar

StartChar: S
Encoding: 83 83 71
Width: 1106
GlyphClass: 2
Flags: HW
LayerCount: 2
Fore
SplineSet
565 1182 m 0
 344.333333333 1182 234 1089.33333333 234 904 c 0
 234 819.333333333 263 761.833333333 321 731.5 c 128
 379 701.166666667 474.833333333 679.333333333 608.5 666 c 128
 742.166666667 652.666666667 849 621.5 929 572.5 c 128
 1009 523.5 1049 448.166666667 1049 346.5 c 128
 1049 244.833333333 1015.33333333 157.833333333 948 85.5 c 128
 880.666666667 13.1666666667 776.5 -23 635.5 -23 c 128
 494.5 -23 359.666666667 22 231 112 c 1
 231 0 l 1
 152 0 l 1
 152 416 l 1
 231 416 l 1
 231 196 l 1
 361 100 499.666666667 52 647 52 c 128
 794.333333333 52 892 108 940 220 c 0
 953.333333333 252 960 289.666666667 960 333 c 0
 960 419 929.333333333 480.5 868 517.5 c 128
 806.666666667 554.5 705.666666667 580 565 594 c 128
 424.333333333 608 318.833333333 638.333333333 248.5 685 c 128
 178.166666667 731.666666667 143 809.333333333 143 918 c 128
 143 1026.66666667 182.5 1110 261.5 1168 c 128
 340.5 1226 437.5 1255 552.5 1255 c 128
 667.5 1255 783 1224.33333333 899 1163 c 1
 899 1234 l 1
 978 1234 l 1
 978 899 l 1
 899 899 l 1
 899 1080 l 1
 797 1148 685.666666667 1182 565 1182 c 0
EndSplineSet
EndChar

StartChar: T
Encoding: 84 84 72
Width: 1071
GlyphClass: 2
Flags: HW
LayerCount: 2
Fore
SplineSet
1073 1234 m 1
 1073 842 l 1
 996 842 l 1
 996 1164 l 1
 566 1164 l 1
 566 60 l 1
 742 60 l 1
 742 0 l 1
 310 0 l 1
 310 60 l 1
 485 60 l 1
 485 1164 l 1
 62 1164 l 1
 62 842 l 1
 -14 842 l 1
 -14 1234 l 1
 1073 1234 l 1
EndSplineSet
EndChar

StartChar: U
Encoding: 85 85 73
Width: 1421
GlyphClass: 2
Flags: HW
LayerCount: 2
Fore
SplineSet
1142 1171 m 1
 981 1171 l 1
 981 1234 l 1
 1384 1234 l 1
 1384 1171 l 1
 1224 1171 l 1
 1224 404 l 2
 1224 270 1170.16666667 165.333333333 1062.5 90 c 128
 954.833333333 14.6666666667 829.333333333 -23 686 -23 c 128
 542.666666667 -23 419.666666667 14.3333333333 317 89 c 128
 214.333333333 163.666666667 163 268.666666667 163 404 c 2
 163 1171 l 1
 2 1171 l 1
 2 1234 l 1
 405 1234 l 1
 405 1171 l 1
 244 1171 l 1
 244 406 l 2
 244 292 287.166666667 203.833333333 373.5 141.5 c 128
 459.833333333 79.1666666667 562 48 680 48 c 0
 880.666666667 48 1021.33333333 115.333333333 1102 250 c 0
 1128.66666667 294.666666667 1142 346.666666667 1142 406 c 2
 1142 1171 l 1
EndSplineSet
EndChar

StartChar: V
Encoding: 86 86 74
Width: 1159
GlyphClass: 2
Flags: HW
LayerCount: 2
Fore
SplineSet
516 0 m 1
 76 1171 l 1
 -82 1171 l 1
 -82 1234 l 1
 321 1234 l 1
 321 1171 l 1
 164 1171 l 1
 560 100 l 1
 952 1171 l 1
 799 1171 l 1
 799 1234 l 1
 1202 1234 l 1
 1202 1171 l 1
 1046 1171 l 1
 602 0 l 1
 516 0 l 1
EndSplineSet
EndChar

StartChar: W
Encoding: 87 87 75
Width: 1827
GlyphClass: 2
Flags: HW
LayerCount: 2
Fore
SplineSet
1239 0 m 1
 893 1044 l 1
 560 0 l 1
 471 0 l 1
 80 1171 l 1
 -78 1171 l 1
 -78 1234 l 1
 325 1234 l 1
 325 1171 l 1
 168 1171 l 1
 516 100 l 1
 848 1171 l 1
 695 1171 l 1
 695 1234 l 1
 1093 1234 l 1
 1093 1171 l 1
 936 1171 l 1
 1284 100 l 1
 1616 1171 l 1
 1463 1171 l 1
 1463 1234 l 1
 1862 1234 l 1
 1862 1171 l 1
 1706 1171 l 1
 1326 0 l 1
 1239 0 l 1
EndSplineSet
EndChar

StartChar: X
Encoding: 88 88 76
Width: 1270
GlyphClass: 2
Flags: HW
LayerCount: 2
Fore
SplineSet
470 1234 m 1
 470 1171 l 1
 310 1171 l 1
 629 695 l 1
 947 1171 l 1
 787 1171 l 1
 787 1234 l 1
 1190 1234 l 1
 1190 1171 l 1
 1032 1171 l 1
 673 629 l 1
 1054 62 l 1
 1214 62 l 1
 1214 0 l 1
 811 0 l 1
 811 62 l 1
 972 62 l 1
 632 568 l 1
 298 62 l 1
 458 62 l 1
 458 0 l 1
 55 0 l 1
 55 62 l 1
 209 62 l 1
 588 634 l 1
 228 1171 l 1
 67 1171 l 1
 67 1234 l 1
 470 1234 l 1
EndSplineSet
EndChar

StartChar: Y
Encoding: 89 89 77
Width: 1141
GlyphClass: 2
Flags: HW
LayerCount: 2
Fore
SplineSet
-88 1171 m 1
 -88 1234 l 1
 315 1234 l 1
 315 1171 l 1
 158 1171 l 1
 555 508 l 1
 945 1171 l 1
 786 1171 l 1
 786 1234 l 1
 1189 1234 l 1
 1189 1171 l 1
 1033 1171 l 1
 594 436 l 1
 594 62 l 1
 754 62 l 1
 754 0 l 1
 351 0 l 1
 351 62 l 1
 512 62 l 1
 512 436 l 1
 70 1171 l 1
 -88 1171 l 1
EndSplineSet
EndChar

StartChar: Z
Encoding: 90 90 78
Width: 1229
GlyphClass: 2
Flags: HW
LayerCount: 2
Fore
SplineSet
185 70 m 1
 1027 70 l 1
 1027 376 l 1
 1104 376 l 1
 1104 0 l 1
 102 0 l 1
 102 96 l 1
 979 1164 l 1
 198 1164 l 1
 198 870 l 1
 121 870 l 1
 121 1234 l 1
 1068 1234 l 1
 1068 1153 l 1
 185 70 l 1
EndSplineSet
EndChar

StartChar: bracketleft
Encoding: 91 91 79
Width: 518
GlyphClass: 2
Flags: HW
LayerCount: 2
Fore
SplineSet
420 1255 m 1
 420 1193 l 1
 260 1193 l 1
 260 40 l 1
 420 40 l 1
 420 -23 l 1
 178 -23 l 1
 178 1255 l 1
 420 1255 l 1
EndSplineSet
EndChar

StartChar: backslash
Encoding: 92 92 80
Width: 535
GlyphClass: 2
Flags: HW
LayerCount: 2
Fore
SplineSet
496 -23 m 1
 420 -23 l 1
 53 1255 l 1
 124 1255 l 1
 496 -23 l 1
EndSplineSet
EndChar

StartChar: bracketright
Encoding: 93 93 81
Width: 522
GlyphClass: 2
Flags: HW
LayerCount: 2
Fore
SplineSet
342 1255 m 1
 342 -23 l 1
 100 -23 l 1
 100 40 l 1
 261 40 l 1
 261 1193 l 1
 100 1193 l 1
 100 1255 l 1
 342 1255 l 1
EndSplineSet
EndChar

StartChar: asciicircum
Encoding: 94 94 82
Width: 891
GlyphClass: 2
Flags: HW
LayerCount: 2
Fore
SplineSet
822 761 m 1
 750 761 l 1
 449 1186 l 1
 135 761 l 1
 61 761 l 1
 407 1255 l 1
 492 1255 l 1
 822 761 l 1
EndSplineSet
EndChar

StartChar: underscore
Encoding: 95 95 83
Width: 1016
GlyphClass: 2
Flags: HW
LayerCount: 2
Fore
SplineSet
871 -62 m 1
 139 -62 l 1
 139 0 l 1
 871 0 l 1
 871 -62 l 1
EndSplineSet
EndChar

StartChar: grave
Encoding: 96 96 84
Width: 420
GlyphClass: 2
Flags: HW
LayerCount: 2
Fore
SplineSet
261 985 m 1
 104 1234 l 1
 231 1234 l 1
 292 985 l 1
 261 985 l 1
EndSplineSet
EndChar

StartChar: a
Encoding: 97 97 85
Width: 981
GlyphClass: 2
Flags: HW
LayerCount: 2
Fore
SplineSet
341.5 -14 m 0
 184.446618038 -14 80 76.5277924504 80 248 c 0
 80 398.666666667 187 474.333333333 401 475 c 0
 485 475 576 465.333333333 674 446 c 1
 674 575 l 2
 674 716.333333333 594.666666667 787 436 787 c 0
 309.333333333 787 216 756.666666667 156 696 c 1
 120 755 l 1
 188.666666667 821 301.166666667 854 457.5 854 c 128
 613.833333333 854 708.333333333 795.666666667 741 679 c 0
 749.666666667 648.333333333 754 619.666666667 754 593 c 2
 754 60 l 1
 907 60 l 1
 907 0 l 1
 690 0 l 1
 674 95 l 1
 574.666666667 22.3333333333 463.833333333 -14 341.5 -14 c 0
161 231.5 m 128
 161 119.025839766 245.083269346 53 376 53 c 0
 498.666666667 53 598 88 674 158 c 1
 674 384 l 1
 587.333333333 401.333333333 506 410 430 410 c 128
 267.121555676 410 161 377.951248166 161 231.5 c 128
EndSplineSet
EndChar

StartChar: b
Encoding: 98 98 86
Width: 1169
GlyphClass: 2
Flags: HW
LayerCount: 2
Fore
SplineSet
338 1234 m 1
 338 695 l 1
 428 801 544.166666667 854 686.5 854 c 128
 828.833333333 854 939.333333333 812.166666667 1018 728.5 c 128
 1096.66666667 644.833333333 1136 546.666666667 1136 434 c 0
 1136 268.666666667 1071.66666667 141 943 51 c 128
 814.333333333 -39 658.333333333 -44 475 36 c 0
 412.333333333 63.3333333333 366.666666667 93 338 125 c 1
 335.333333333 103.666666667 333 82.6666666667 331 62 c 128
 328 31 328 31 325 0 c 1
 94 0 l 1
 94 60 l 1
 259 60 l 1
 259 1174 l 1
 110 1174 l 1
 110 1234 l 1
 338 1234 l 1
1057 388 m 0
 1057 636.711266439 926.767265813 787 682 787 c 128
 562.666666667 787 448 731 338 619 c 1
 338 193 l 1
 458 99.6666666667 576.833333333 53 694.5 53 c 128
 812.166666667 53 902 90.3333333333 964 165 c 128
 1026 239.666666667 1057 314 1057 388 c 0
EndSplineSet
EndChar

StartChar: c
Encoding: 99 99 87
Width: 936
GlyphClass: 2
Flags: HW
LayerCount: 2
Fore
SplineSet
772 600 m 1
 760.36615837 722.155337111 654.19575374 784.886170087 502 787 c 1
 401.333333333 787 315.666666667 754.5 245 689.5 c 128
 174.333333333 624.5 139 535.5 139 422.5 c 128
 139 309.5 174.666666667 220.166666667 246 154.5 c 128
 317.333333333 88.8333333333 402 55.3333333333 500 54 c 1
 644 54 758.666666667 110 844 222 c 1
 867 149 l 1
 758.333333333 40.3333333333 639.5 -13.6666666667 510.5 -13 c 128
 256.951656623 -11.689672644 57 164.600954075 57 418.5 c 128
 57 677.333749113 237.480835918 849.273955781 497.5 852.5 c 128
 631.833333333 854.166666667 720 820 762 750 c 1
 762 860 l 1
 838 860 l 1
 838 600 l 1
 772 600 l 1
EndSplineSet
EndChar

StartChar: d
Encoding: 100 100 88
Width: 1165
GlyphClass: 2
Flags: HW
LayerCount: 2
Fore
SplineSet
845 125 m 1
 761.666666667 32.3333333333 626.333333333 -14 439 -14 c 0
 280.574027032 -14 143.538709571 108.251577302 92 224.5 c 128
 62 292.166666667 47 357.333333333 47 420 c 0
 47 542.666666667 86.3333333333 645.666666667 165 729 c 128
 243.666666667 812.333333333 354.166666667 854 496.5 854 c 128
 638.833333333 854 755 801 845 695 c 1
 845 1174 l 1
 641 1174 l 1
 641 1234 l 1
 924 1234 l 1
 924 60 l 1
 1089 60 l 1
 1089 0 l 1
 858 0 l 1
 845 125 l 1
480 53 m 0
 603.333333333 53 725 99.6666666667 845 193 c 1
 845 619 l 1
 735 731 620.333333333 787 501 787 c 128
 381.666666667 787 289.333333333 752.5 224 683.5 c 128
 158.666666667 614.5 126 528.666666667 126 426 c 0
 126 264.666666667 192 151.333333333 324 86 c 0
 368 64 420 53 480 53 c 0
EndSplineSet
EndChar

StartChar: e
Encoding: 101 101 89
Width: 934
GlyphClass: 2
Flags: HW
LayerCount: 2
Fore
SplineSet
867 149 m 1
 752.333333333 40.3333333333 630.333333333 -14 501 -14 c 128
 371.666666667 -14 265.333333333 27.1666666667 182 109.5 c 128
 98.6666666667 191.833333333 57 293.5 57 414.5 c 128
 57 535.5 96.5 639 175.5 725 c 128
 254.5 811 358.5 854 487.5 854 c 128
 616.5 854 715.833333333 810.333333333 785.5 723 c 128
 855.166666667 635.666666667 890 528 890 400 c 1
 139 400 l 1
 150.333333333 232.666666667 224.666666667 124 362 74 c 0
 402 59.3333333333 444 52 488 52 c 0
 622.666666667 52 738 102.666666667 834 204 c 1
 867 149 l 1
812 466 m 1
 798 608.666666667 737 706.666666667 629 760 c 0
 592.333333333 778 548 787 496 787 c 0
 392 787 308 755 244 691 c 128
 180 627 145.666666667 552 141 466 c 1
 812 466 l 1
EndSplineSet
EndChar

StartChar: f
Encoding: 102 102 90
Width: 643
GlyphClass: 2
Flags: HW
LayerCount: 2
Fore
SplineSet
261 1064 m 2
 261 1168.79558432 325.928700059 1234 444 1234 c 128
 523.644876461 1234 581.830325225 1153.87182838 584 1066 c 1
 509 1066 l 1
 509 1136.66666667 482 1172 428 1172 c 0
 376.110987402 1172 340 1121.7995464 340 1066 c 2
 340 836 l 1
 543 836 l 1
 543 779 l 1
 340 779 l 1
 340 60 l 1
 531 60 l 1
 531 0 l 1
 106 0 l 1
 106 60 l 1
 261 60 l 1
 261 779 l 1
 106 779 l 1
 106 836 l 1
 261 836 l 1
 261 1064 l 2
EndSplineSet
EndChar

StartChar: g
Encoding: 103 103 91
Width: 1110
GlyphClass: 2
Flags: HW
LayerCount: 2
Fore
SplineSet
831 120 m 1
 745 30.6666666667 632.666666667 -14 494 -14 c 128
 355.333333333 -14 247.833333333 29 171.5 115 c 128
 95.1666666667 201 57 300.666666667 57 414 c 128
 57 527.333333333 92.5 629 163.5 719 c 128
 234.5 809 332.666666667 854 458 854 c 0
 583.333333333 854 690.666666667 822 780 758 c 0
 802.666666667 742 819.666666667 727.666666667 831 715 c 1
 844 840 l 1
 1074 840 l 1
 1074 780 l 1
 910 780 l 1
 910 29 l 2
 910 -126.333333333 845.666666667 -226.666666667 717 -272 c 0
 643 -298 563.166666667 -312 477.5 -314 c 128
 391.833333333 -316 319.666666667 -317 261 -317 c 1
 261 -248 l 1
 410 -248 l 2
 576 -248 687.666666667 -226 745 -182 c 128
 802.333333333 -138 831 -73.3333333333 831 12 c 2
 831 120 l 1
831 647 m 1
 713 740.333333333 597 787 483 787 c 128
 369 787 282.666666667 750 224 676 c 128
 165.333333333 602 136.333333333 527.333333333 137 452 c 0
 139.426412362 220.27761942 260.019915742 53 482 53 c 128
 583.333333333 53 658.666666667 68.5 708 99.5 c 128
 757.333333333 130.5 798.333333333 160.666666667 831 190 c 1
 831 647 l 1
EndSplineSet
EndChar

StartChar: h
Encoding: 104 104 92
Width: 1198
GlyphClass: 2
Flags: HW
LayerCount: 2
Fore
SplineSet
86 1176 m 1
 86 1234 l 1
 338 1234 l 1
 338 736 l 1
 450 798 528.833333333 833.166666667 574.5 841.5 c 128
 620.166666667 849.833333333 661.666666667 854 699 854 c 0
 788.333333333 854 854.166666667 830.5 896.5 783.5 c 128
 938.833333333 736.5 960 681 960 617 c 2
 960 60 l 1
 1135 60 l 1
 1135 0 l 1
 723 0 l 1
 723 60 l 1
 881 60 l 1
 881 601 l 2
 881 725 816.333333333 787 687 787 c 0
 603 787 513.666666667 761 419 709 c 0
 392.333333333 694.333333333 365.333333333 679.333333333 338 664 c 1
 338 60 l 1
 530 60 l 1
 530 0 l 1
 97 0 l 1
 97 60 l 1
 259 60 l 1
 259 1176 l 1
 86 1176 l 1
EndSplineSet
EndChar

StartChar: i
Encoding: 105 105 93
Width: 582
GlyphClass: 2
Flags: HW
LayerCount: 2
Fore
SplineSet
300.5 1092 m 128
 264.455777309 1092 239 1115.52554651 239 1148 c 0
 239 1186 259.666666667 1205 301 1205 c 256
 337.874861418 1205 364 1182.45625855 364 1149 c 128
 364 1115.80806379 336.897760555 1092 300.5 1092 c 128
115 776 m 1
 115 836 l 1
 344 836 l 1
 344 60 l 1
 498 60 l 1
 498 0 l 1
 115 0 l 1
 115 60 l 1
 265 60 l 1
 265 776 l 1
 115 776 l 1
EndSplineSet
EndChar

StartChar: j
Encoding: 106 106 94
Width: 408
GlyphClass: 2
Flags: HW
LayerCount: 2
Fore
SplineSet
162 779 m 1
 25 779 l 1
 25 836 l 1
 241 836 l 1
 241 -22 l 2
 241.666666667 -104 234 -158.666666667 218 -186 c 0
 185.333333333 -242.666666667 121.666666667 -271 27 -271 c 2
 -53 -271 l 1
 -53 -211 l 1
 25 -211 l 2
 87.6666666667 -211 126.166666667 -198.666666667 140.5 -174 c 0
 154.833333333 -149.333333333 162 -102.666666667 162 -34 c 2
 162 779 l 1
191.5 1092 m 128
 155.455777309 1092 130 1115.52554651 130 1148 c 0
 130 1186 150.666666667 1205 192 1205 c 256
 233.333333333 1205 254 1186 254 1148 c 0
 254 1115.60859719 227.42168503 1092 191.5 1092 c 128
EndSplineSet
EndChar

StartChar: k
Encoding: 107 107 95
Width: 1124
GlyphClass: 2
Flags: HW
LayerCount: 2
Fore
SplineSet
94 1174 m 1
 94 1234 l 1
 359 1234 l 1
 359 454 l 1
 753 776 l 1
 629 776 l 1
 629 836 l 1
 1014 836 l 1
 1014 776 l 1
 855 776 l 1
 452 439 l 1
 898 60 l 1
 1049 60 l 1
 1049 0 l 1
 666 0 l 1
 666 60 l 1
 789 60 l 1
 359 431 l 1
 359 60 l 1
 543 60 l 1
 543 0 l 1
 94 0 l 1
 94 60 l 1
 280 60 l 1
 280 1174 l 1
 94 1174 l 1
EndSplineSet
EndChar

StartChar: l
Encoding: 108 108 96
Width: 612
GlyphClass: 2
Flags: HW
LayerCount: 2
Fore
SplineSet
94 1174 m 1
 94 1234 l 1
 359 1234 l 1
 359 60 l 1
 543 60 l 1
 543 0 l 1
 94 0 l 1
 94 60 l 1
 280 60 l 1
 280 1174 l 1
 94 1174 l 1
EndSplineSet
EndChar

StartChar: m
Encoding: 109 109 97
Width: 1659
GlyphClass: 2
Flags: HW
LayerCount: 2
Fore
SplineSet
1201 854 m 128
 1332.76751901 854 1412 764.86152243 1412 617 c 2
 1412 60 l 1
 1588 60 l 1
 1588 0 l 1
 1176 0 l 1
 1176 60 l 1
 1333 60 l 1
 1333 601 l 2
 1332.33333333 691 1308.66666667 748 1262 772 c 0
 1204.07237263 800.963813684 1100.26865244 785.268654733 1041.5 758 c 128
 999.833333333 738.666666667 944.333333333 707.333333333 875 664 c 1
 877 648 878 632.333333333 878 617 c 2
 878 60 l 1
 1054 60 l 1
 1054 0 l 1
 642 0 l 1
 642 60 l 1
 799 60 l 1
 799 601 l 2
 798.333333333 691 774.666666667 748 728 772 c 0
 671.629152601 800.185423699 567.040867913 785.607467253 510.5 759 c 128
 470.833333333 740.333333333 415.333333333 708.666666667 344 664 c 1
 344 60 l 1
 500 60 l 1
 500 0 l 1
 103 0 l 1
 103 60 l 1
 265 60 l 1
 265 779 l 1
 92 779 l 1
 92 836 l 1
 332 836 l 1
 341 736 l 1
 439.666666667 798 510.166666667 833.166666667 552.5 841.5 c 128
 594.833333333 849.833333333 631 854 661 854 c 0
 756.333333333 854 822 811.666666667 858 727 c 1
 980 811.666666667 1094.33333333 854 1201 854 c 128
EndSplineSet
EndChar

StartChar: n
Encoding: 110 110 98
Width: 1202
GlyphClass: 2
Flags: HW
LayerCount: 2
Fore
SplineSet
879 601 m 2
 878.038916875 730.74622194 822.491784777 784.776932415 698 787 c 1
 586.666666667 787 474.333333333 747.333333333 361 668 c 1
 361 60 l 1
 543 60 l 1
 543 0 l 1
 100 0 l 1
 100 60 l 1
 281 60 l 1
 281 779 l 1
 101 779 l 1
 101 836 l 1
 349 836 l 1
 357 736 l 1
 476.333333333 814.666666667 596.666666667 854 718 854 c 128
 864.570158432 854 958 771.181466469 958 617 c 2
 958 60 l 1
 1133 60 l 1
 1133 0 l 1
 722 0 l 1
 722 60 l 1
 879 60 l 1
 879 601 l 2
EndSplineSet
EndChar

StartChar: o
Encoding: 111 111 99
Width: 1004
GlyphClass: 2
Flags: HW
LayerCount: 2
Fore
SplineSet
767.5 690.5 m 128
 693.166666667 754.833333333 606.333333333 787 507 787 c 128
 407.666666667 787 321.5 754.666666667 248.5 690 c 128
 175.5 625.333333333 139 535.833333333 139 421.5 c 128
 139 307.166666667 175.333333333 217.166666667 248 151.5 c 128
 320.666666667 85.8333333333 407 53 507 53 c 128
 607 53 694 85.8333333333 768 151.5 c 128
 842 217.166666667 879 307.333333333 879 422 c 128
 879 536.666666667 841.833333333 626.166666667 767.5 690.5 c 128
824 102 m 128
 734 24.6666666667 628.166666667 -14 506.5 -14 c 128
 384.833333333 -14 279.5 24.8333333333 190.5 102.5 c 128
 101.5 180.166666667 57 286.833333333 57 422.5 c 128
 57 558.166666667 101.333333333 664 190 740 c 128
 278.666666667 816 384 854 506 854 c 128
 628 854 734 816 824 740 c 128
 914 664 959 558 959 422 c 128
 959 286 914 179.333333333 824 102 c 128
EndSplineSet
EndChar

StartChar: p
Encoding: 112 112 100
Width: 1120
GlyphClass: 2
Flags: HW
LayerCount: 2
Fore
SplineSet
281 715 m 1
 389 807.666666667 524.333333333 854 687 854 c 0
 845.425972968 854 982.461290429 731.748422698 1034 615.5 c 128
 1064 547.833333333 1079 482.666666667 1079 420 c 0
 1079 297.333333333 1039.66666667 194.333333333 961 111 c 128
 882.333333333 27.6666666667 771.833333333 -14 629.5 -14 c 128
 487.166666667 -14 371 39 281 145 c 1
 281 -262 l 1
 428 -262 l 1
 428 -322 l 1
 53 -322 l 1
 53 -262 l 1
 202 -262 l 1
 202 780 l 1
 37 780 l 1
 37 840 l 1
 268 840 l 1
 281 715 l 1
646 787 m 0
 522.666666667 787 401 740.333333333 281 647 c 1
 281 221 l 1
 391 109 505.666666667 53 625 53 c 128
 744.333333333 53 836.666666667 87.5 902 156.5 c 128
 967.333333333 225.5 1000 311.333333333 1000 414 c 0
 1000 575.333333333 934 688.666666667 802 754 c 0
 758 776 706 787 646 787 c 0
EndSplineSet
EndChar

StartChar: q
Encoding: 113 113 101
Width: 1141
GlyphClass: 2
Flags: HW
LayerCount: 2
Fore
SplineSet
473.5 854 m 128
 626.390252623 854 787.719373995 790.10395461 855 715 c 1
 869 840 l 1
 1099 840 l 1
 1099 780 l 1
 935 780 l 1
 935 -262 l 1
 1083 -262 l 1
 1083 -322 l 1
 708 -322 l 1
 708 -262 l 1
 855 -262 l 1
 855 97 l 1
 765 23 648.833333333 -14 506.5 -14 c 128
 364.166666667 -14 253.666666667 27.8333333333 175 111.5 c 128
 96.3333333333 195.166666667 57 293.333333333 57 406 c 0
 56.3333333333 571.333333333 116.666666667 696.333333333 238 781 c 0
 307.333333333 829.666666667 385.833333333 854 473.5 854 c 128
137 452 m 0
 137 199.885110985 267.857045269 53 519 53 c 128
 643.666666667 53 755.666666667 89.6666666667 855 163 c 1
 855 647 l 1
 735 740.333333333 616.333333333 787 499 787 c 128
 381.666666667 787 292 749.666666667 230 675 c 128
 168 600.333333333 137 526 137 452 c 0
EndSplineSet
EndChar

StartChar: r
Encoding: 114 114 102
Width: 748
GlyphClass: 2
Flags: HW
LayerCount: 2
Fore
SplineSet
573.5 787 m 128
 431.920732512 787 363 627.66079263 363 468 c 2
 363 60 l 1
 546 60 l 1
 546 0 l 1
 100 0 l 1
 100 60 l 1
 284 60 l 1
 284 779 l 1
 101 779 l 1
 101 836 l 1
 351 836 l 1
 363 652 l 1
 391.345528572 756.311545145 463.828837071 854 586.5 854 c 128
 640.166666667 854 696.666666667 840.666666667 756 814 c 1
 744 746 l 1
 688 773.333333333 631.166666667 787 573.5 787 c 128
EndSplineSet
EndChar

StartChar: s
Encoding: 115 115 103
Width: 874
GlyphClass: 2
Flags: HW
LayerCount: 2
Fore
SplineSet
811 227.5 m 128
 811 51.1242207988 635.505053453 -14 447 -14 c 128
 338.333333333 -14 255 15 197 73 c 1
 197 0 l 1
 129 0 l 1
 129 268 l 1
 197 268 l 1
 197 168 l 1
 234.333333333 91.3333333333 318.666666667 53.1666666667 450 53.5 c 0
 581.333333333 53.8333333333 668 85.3333333333 710 148 c 0
 724 169.333333333 731 201 731 243 c 0
 731 327 661.333333333 376.833333333 522 392.5 c 128
 382.666666667 408.166666667 283 431 223 461 c 128
 163 491 133 544 133 620 c 0
 132.333333333 734.666666667 194.666666667 808 320 840 c 0
 356 849.333333333 392.666666667 853.666666667 430 853 c 0
 542 853 626.666666667 827.333333333 684 776 c 1
 684 836 l 1
 754 836 l 1
 754 572 l 1
 684 572 l 1
 684 695 l 1
 634.666666667 755.666666667 557.333333333 786 452 786 c 128
 346.666666667 786 274.333333333 756 235 696 c 0
 221.666666667 676 215 650.666666667 215 620 c 0
 215 565.333333333 246 526.666666667 308 504 c 0
 338 492.666666667 403.166666667 479.833333333 503.5 465.5 c 128
 603.833333333 451.166666667 680.166666667 427.666666667 732.5 395 c 128
 784.833333333 362.333333333 811 306.5 811 227.5 c 128
EndSplineSet
EndChar

StartChar: t
Encoding: 116 116 104
Width: 547
GlyphClass: 2
Flags: HW
LayerCount: 2
Fore
SplineSet
37 781 m 1
 37 836 l 1
 162 836 l 1
 162 1148 l 1
 241 1166 l 1
 241 836 l 1
 440 836 l 1
 440 781 l 1
 241 781 l 1
 241 238 l 2
 241 169.333333333 248.166666667 122.5 262.5 97.5 c 128
 276.833333333 72.5 315.333333333 60 378 60 c 2
 456 60 l 1
 456 0 l 1
 375 0 l 2
 243.666666667 0 174 53.3333333333 166 160 c 0
 163.333333333 189.333333333 162 219.333333333 162 250 c 2
 162 781 l 1
 37 781 l 1
EndSplineSet
EndChar

StartChar: u
Encoding: 117 117 105
Width: 1102
GlyphClass: 2
Flags: HW
LayerCount: 2
Fore
SplineSet
268 239 m 2
 268 106.084533321 329.203777693 55.1278069231 459 53 c 1
 549 53 657.333333333 93 784 173 c 1
 784 776 l 1
 610 776 l 1
 610 836 l 1
 863 836 l 1
 863 58 l 1
 1036 58 l 1
 1036 0 l 1
 796 0 l 1
 788 104 l 1
 685.333333333 42.6666666667 611.5 7.66666666667 566.5 -1 c 128
 521.5 -9.66666666667 468 -14 406 -14 c 128
 280.786487271 -14 189 97.0240175354 189 223 c 2
 189 776 l 1
 14 776 l 1
 14 836 l 1
 268 836 l 1
 268 239 l 2
EndSplineSet
EndChar

StartChar: v
Encoding: 118 118 106
Width: 1032
GlyphClass: 2
Flags: HW
LayerCount: 2
Fore
SplineSet
217 776 m 1
 519 71 l 1
 797 776 l 1
 654 776 l 1
 654 836 l 1
 1046 836 l 1
 1046 776 l 1
 887 776 l 1
 567 0 l 1
 477 0 l 1
 135 776 l 1
 -29 776 l 1
 -29 836 l 1
 369 836 l 1
 369 776 l 1
 217 776 l 1
EndSplineSet
EndChar

StartChar: w
Encoding: 119 119 107
Width: 1554
GlyphClass: 2
Flags: HW
LayerCount: 2
Fore
SplineSet
217 776 m 1
 463 65 l 1
 724 776 l 1
 581 776 l 1
 581 836 l 1
 961 836 l 1
 961 776 l 1
 815 776 l 1
 1078 65 l 1
 1316 776 l 1
 1174 776 l 1
 1174 836 l 1
 1566 836 l 1
 1566 776 l 1
 1406 776 l 1
 1127 0 l 1
 1037 0 l 1
 774 710 l 1
 509 0 l 1
 419 0 l 1
 139 776 l 1
 -25 776 l 1
 -25 836 l 1
 370 836 l 1
 370 776 l 1
 217 776 l 1
EndSplineSet
EndChar

StartChar: x
Encoding: 120 120 108
Width: 1182
GlyphClass: 2
Flags: HW
LayerCount: 2
Fore
SplineSet
327 776 m 1
 577 481 l 1
 824 776 l 1
 676 776 l 1
 676 836 l 1
 1073 836 l 1
 1073 776 l 1
 914 776 l 1
 623 426 l 1
 933 60 l 1
 1084 60 l 1
 1084 0 l 1
 689 0 l 1
 689 60 l 1
 853 60 l 1
 584 378 l 1
 321 60 l 1
 459 60 l 1
 459 0 l 1
 76 0 l 1
 76 60 l 1
 226 60 l 1
 537 433 l 1
 249 776 l 1
 100 776 l 1
 100 836 l 1
 484 836 l 1
 484 776 l 1
 327 776 l 1
EndSplineSet
EndChar

StartChar: y
Encoding: 121 121 109
Width: 1026
GlyphClass: 2
Flags: HW
LayerCount: 2
Fore
SplineSet
139 -206 m 1
 234.333333333 -206 302.5 -201 343.5 -191 c 0
 384.5 -181 415.666666667 -152 437 -104 c 2
 507 58 l 1
 451 58 l 1
 131 776 l 1
 -33 776 l 1
 -33 836 l 1
 366 836 l 1
 366 776 l 1
 218 776 l 1
 517 89 l 1
 793 776 l 1
 650 776 l 1
 650 836 l 1
 1043 836 l 1
 1043 776 l 1
 884 776 l 1
 510 -127 l 1
 470 -219.666666667 388 -268 264 -272 c 0
 225.333333333 -273.333333333 183.666666667 -274 139 -274 c 1
 139 -206 l 1
EndSplineSet
EndChar

StartChar: z
Encoding: 122 122 110
Width: 909
GlyphClass: 2
Flags: HW
LayerCount: 2
Fore
SplineSet
106 0 m 1
 106 67 l 1
 682 776 l 1
 211 776 l 1
 211 583 l 1
 142 583 l 1
 142 836 l 1
 765 836 l 1
 765 764 l 1
 196 58 l 1
 714 58 l 1
 714 277 l 1
 783 277 l 1
 783 0 l 1
 106 0 l 1
EndSplineSet
EndChar

StartChar: braceleft
Encoding: 123 123 111
Width: 555
GlyphClass: 2
Flags: HW
LayerCount: 2
Fore
SplineSet
301 212 m 128
 301 66.6958699497 330.335641878 31 475 31 c 1
 475 -23 l 1
 410 -23 l 2
 286.666666667 -23.6666666667 222.666666667 45.3333333333 218 184 c 0
 216.666666667 226.666666667 216 286.666666667 216 364 c 128
 216 441.333333333 208.666666667 495.666666667 194 527 c 128
 179.333333333 558.333333333 137.333333333 574 68 574 c 1
 68 658 l 1
 137.333333333 658 179.333333333 673.666666667 194 705 c 128
 208.666666667 736.333333333 216 810.166666667 216 926.5 c 128
 216 1042.83333333 223.333333333 1119.66666667 238 1157 c 0
 263.333333333 1222.33333333 320.666666667 1255 410 1255 c 2
 475 1255 l 1
 475 1201 l 1
 403 1201 356 1189.16666667 334 1165.5 c 128
 312 1141.83333333 301 1074.33333333 301 963 c 128
 301 851.666666667 292.666666667 767 276 709 c 128
 259.333333333 651 222 620 164 616 c 1
 244.666666667 610.666666667 289 536 297 392 c 0
 299.666666667 344.666666667 301 284.666666667 301 212 c 128
EndSplineSet
EndChar

StartChar: bar
Encoding: 124 124 112
Width: 426
GlyphClass: 2
Flags: HW
LayerCount: 2
Fore
SplineSet
178 1255 m 1
 246 1255 l 1
 246 -23 l 1
 178 -23 l 1
 178 1255 l 1
EndSplineSet
EndChar

StartChar: braceright
Encoding: 125 125 113
Width: 557
GlyphClass: 2
Flags: HW
LayerCount: 2
Fore
SplineSet
260 1021.5 m 128
 260 1168.28255064 232.721122094 1201 86 1201 c 1
 86 1255 l 1
 151 1255 l 2
 275 1255.66666667 339.333333333 1186.66666667 344 1048 c 0
 345.333333333 1005.33333333 346 945.333333333 346 868 c 128
 346 790.666666667 353.333333333 736.333333333 368 705 c 128
 382.666666667 673.666666667 424.333333333 658 493 658 c 1
 493 574 l 1
 424.333333333 574 382.666666667 558.333333333 368 527 c 128
 353.333333333 495.666666667 346 421.833333333 346 305.5 c 128
 346 189.166666667 338.666666667 112.333333333 324 75 c 0
 298.666666667 9.66666666667 241 -23 151 -23 c 2
 86 -23 l 1
 86 31 l 1
 158 31 205 42.8333333333 227 66.5 c 128
 249 90.1666666667 260 157.666666667 260 269 c 128
 260 380.333333333 268.666666667 465 286 523 c 128
 303.333333333 581 340.333333333 612 397 616 c 1
 316.333333333 621.333333333 272 696 264 840 c 0
 261.333333333 888 260 948.5 260 1021.5 c 128
EndSplineSet
EndChar

StartChar: asciitilde
Encoding: 126 126 114
Width: 788
GlyphClass: 2
Flags: HW
LayerCount: 2
Fore
SplineSet
249 1157 m 0
 309.641499519 1157 503.100064287 1110 561 1110 c 128
 593 1110 614 1124.33333333 624 1153 c 1
 661 1153 l 1
 651 1065.66666667 609.666666667 1022 537 1022 c 0
 497.666666667 1022 441 1029.83333333 367 1045.5 c 128
 293 1061.16666667 242.5 1069 215.5 1069 c 128
 188.5 1069 171 1055.33333333 163 1028 c 1
 125 1028 l 1
 135 1114 176.333333333 1157 249 1157 c 0
EndSplineSet
EndChar

StartChar: exclamdown
Encoding: 161 161 115
Width: 430
GlyphClass: 2
Flags: HW
LayerCount: 2
Fore
SplineSet
164 1171 m 1
 267 1171 l 1
 269 1066 l 1
 164 1066 l 1
 164 1171 l 1
231 827 m 1
 260 362 l 1
 260 0 l 1
 171 0 l 1
 171 362 l 1
 200 827 l 1
 231 827 l 1
EndSplineSet
EndChar

StartChar: cent
Encoding: 162 162 116
Width: 950
GlyphClass: 2
Flags: HW
LayerCount: 2
Fore
SplineSet
865 149 m 1
 756.333333333 40.3333333333 632.666666667 -14 494 -14 c 1
 457.333333333 -12.6666666667 423.333333333 -8.33333333333 392 -1 c 1
 331 -214 l 1
 268 -214 l 1
 335 15 l 1
 206.333333333 62.3333333333 120 150 76 278 c 0
 61.3333333333 320.666666667 54.3333333333 370 55 426 c 0
 55 547.333333333 94.8333333333 648.333333333 174.5 729 c 128
 254.166666667 809.666666667 362 851.333333333 498 854 c 0
 521.333333333 854 547.666666667 851.666666667 577 847 c 1
 640 1064 l 1
 698 1064 l 1
 632 834 l 1
 693.333333333 816 736 788 760 750 c 1
 760 860 l 1
 836 860 l 1
 836 600 l 1
 770 600 l 1
 759.333333333 690 707.333333333 747.666666667 614 773 c 1
 411 65 l 1
 440.333333333 57.6666666667 469.333333333 54 498 54 c 0
 642 54 756.666666667 110 842 222 c 1
 865 149 l 1
558 783 m 1
 539.333333333 785.666666667 513 787 479 787 c 0
 392.333333333 787 313.666666667 754.5 243 689.5 c 128
 172.333333333 624.5 137 532.5 137 413.5 c 128
 137 256.263102447 224.13597058 135.902479978 355 83 c 1
 558 783 l 1
EndSplineSet
EndChar

StartChar: sterling
Encoding: 163 163 117
Width: 1096
GlyphClass: 2
Flags: HW
LayerCount: 2
Fore
SplineSet
291 960.5 m 128
 291 1145.6589967 443.628724446 1255 638 1255 c 128
 837.33562716 1255 959 1159.02405128 959 968 c 1
 883 968 l 1
 883 1115.33333333 805 1189 649 1189 c 0
 468.333333333 1189 378 1110.66666667 378 954 c 0
 378 882 405.333333333 796.666666667 460 698 c 0
 475.333333333 670 491 641 507 611 c 1
 882 611 l 1
 882 562 l 1
 523 562 l 1
 553.666666667 475.333333333 569 399 569 333 c 128
 569 267 560.333333333 208 543 156 c 1
 601 81.3333333333 680 44 780 44 c 0
 903.333333333 44 965 116.666666667 965 262 c 1
 1015 262 l 1
 1017 246.666666667 1018 217.166666667 1018 173.5 c 128
 1018 129.833333333 998 85.1666666667 958 39.5 c 128
 918 -6.16666666667 853 -29 763 -29 c 128
 673 -29 594 16.3333333333 526 107 c 1
 482.666666667 4.33333333333 392.333333333 -47 255 -47 c 128
 117.666666667 -47 49 11 49 127 c 0
 49 250.277045935 159.705643542 300 293.5 300 c 128
 371.166666667 300 433.666666667 268 481 204 c 1
 487.666666667 236 491 280.166666667 491 336.5 c 128
 491 392.833333333 471.333333333 468 432 562 c 1
 184 562 l 1
 184 611 l 1
 407 611 l 1
 393.666666667 637 380 663.333333333 366 690 c 0
 316 785.333333333 291 875.5 291 960.5 c 128
281 244 m 0
 173 244 119 199 119 109 c 0
 119 79.6666666667 136.5 52.3333333333 171.5 27 c 128
 243.727375851 -25.2788625205 348.382754057 18.7646427403 403.5 54.5 c 128
 433.833333333 74.1666666667 454.666666667 107.333333333 466 154 c 1
 417.333333333 214 355.666666667 244 281 244 c 0
EndSplineSet
EndChar

StartChar: currency
Encoding: 164 164 118
Width: 1073
GlyphClass: 2
Flags: HW
LayerCount: 2
Fore
SplineSet
743 647 m 1
 685.666666667 607 617.333333333 587 538 587 c 128
 458.666666667 587 388.333333333 606.666666667 327 646 c 1
 221 541 l 1
 139 623 l 1
 237 721 l 1
 177 793 147 875.833333333 147 969.5 c 128
 147 1063.16666667 176.333333333 1142.66666667 235 1208 c 1
 139 1306 l 1
 221 1388 l 1
 325 1285 l 1
 386.333333333 1324.33333333 456.166666667 1344 534.5 1344 c 128
 612.833333333 1344 683.333333333 1323.66666667 746 1283 c 1
 851 1388 l 1
 934 1306 l 1
 835 1206 l 1
 891 1134 919 1053.66666667 919 965 c 256
 919 873.666666667 890 793.333333333 832 724 c 1
 934 623 l 1
 851 541 l 1
 743 647 l 1
532 1247 m 256
 374.044128819 1247 253 1144.50272069 253 965 c 256
 253 875 281.666666667 805 339 755 c 128
 396.333333333 705 452.666666667 680 508 680 c 0
 714 680 817 783.666666667 817 991 c 0
 817 1133.6194619 677.958766397 1247 532 1247 c 256
EndSplineSet
EndChar

StartChar: yen
Encoding: 165 165 119
Width: 1266
GlyphClass: 2
Flags: HW
LayerCount: 2
Fore
SplineSet
1014 226 m 1
 678 226 l 1
 678 62 l 1
 838 62 l 1
 838 0 l 1
 435 0 l 1
 435 62 l 1
 596 62 l 1
 596 226 l 1
 265 226 l 1
 265 288 l 1
 596 288 l 1
 596 433 l 1
 265 433 l 1
 265 496 l 1
 560 496 l 1
 154 1171 l 1
 -4 1171 l 1
 -4 1234 l 1
 399 1234 l 1
 399 1171 l 1
 242 1171 l 1
 639 508 l 1
 1029 1171 l 1
 870 1171 l 1
 870 1234 l 1
 1273 1234 l 1
 1273 1171 l 1
 1117 1171 l 1
 714 496 l 1
 1014 496 l 1
 1014 433 l 1
 678 433 l 1
 678 288 l 1
 1014 288 l 1
 1014 226 l 1
EndSplineSet
EndChar

StartChar: brokenbar
Encoding: 166 166 120
Width: 414
GlyphClass: 2
Flags: HW
LayerCount: 2
Fore
SplineSet
172 1255 m 1
 240 1255 l 1
 240 715 l 1
 172 715 l 1
 172 1255 l 1
172 517 m 1
 240 517 l 1
 240 -23 l 1
 172 -23 l 1
 172 517 l 1
EndSplineSet
EndChar

StartChar: section
Encoding: 167 167 121
Width: 963
GlyphClass: 2
Flags: HW
LayerCount: 2
Fore
SplineSet
512 104 m 0
 629.884452907 104 749 150.761648558 749 258.5 c 0
 748.333333333 304.833333333 717.333333333 340 656 364 c 0
 621.333333333 377.333333333 555.333333333 391 458 405 c 128
 360.666666667 419 286 439.833333333 234 467.5 c 128
 182 495.166666667 156 545.333333333 156 618 c 128
 156 690.666666667 191 745.333333333 261 782 c 1
 191 818 156 872 156 944 c 0
 156 1041.33333333 218.666666667 1103.33333333 344 1130 c 0
 380 1138 416.333333333 1141.66666667 453 1141 c 0
 565 1141 649.666666667 1115.33333333 707 1064 c 1
 707 1124 l 1
 777 1124 l 1
 777 896 l 1
 707 896 l 1
 707 983 l 1
 657.666666667 1043.66666667 580.166666667 1074 474.5 1074 c 128
 368.833333333 1074 296.666666667 1050.66666667 258 1004 c 0
 244.666666667 988 238 966.666666667 238 940 c 0
 238 890.666666667 269 854.666666667 331 832 c 0
 361 820.666666667 426 808 526 794 c 128
 626 780 702.333333333 758.166666667 755 728.5 c 128
 807.666666667 698.833333333 833.666666667 647.166666667 833 573.5 c 128
 832.333333333 499.833333333 798 444.333333333 730 407 c 1
 794 370.333333333 826 317.333333333 826 248 c 0
 826 154.666666667 767.333333333 90.6666666667 650 56 c 0
 608.666666667 44 558 37.6666666667 498 37 c 0
 371.333333333 37 278.666666667 66.3333333333 220 125 c 1
 220 52 l 1
 152 52 l 1
 152 283 l 1
 220 283 l 1
 220 220 l 1
 257.333333333 142.666666667 354.666666667 104 512 104 c 0
674 439 m 1
 727.333333333 463 754 506.333333333 754 569 c 0
 754 639.666666667 700.666666667 686.666666667 594 710 c 0
 539.139914953 721.969473101 373.551241414 742.859342901 324 758 c 1
 266.666666667 736 238 688 238 614 c 0
 238 464.88804448 532.693639647 470.99389291 674 439 c 1
EndSplineSet
EndChar

StartChar: dieresis
Encoding: 168 168 122
Width: 608
GlyphClass: 2
Flags: HW
LayerCount: 2
Fore
SplineSet
473 1046 m 1
 473 940 l 1
 373 940 l 1
 373 1046 l 1
 473 1046 l 1
231 1046 m 1
 231 940 l 1
 131 940 l 1
 131 1046 l 1
 231 1046 l 1
EndSplineSet
EndChar

StartChar: copyright
Encoding: 169 169 123
Width: 1458
GlyphClass: 2
Flags: HW
LayerCount: 2
Fore
SplineSet
1040 379 m 1
 949.333333333 287 849.166666667 241.333333333 739.5 242 c 128
 525.646623068 243.300020528 357 388.622298213 357 602 c 0
 357 770 429.333333333 883.333333333 574 942 c 0
 620 960.666666667 684.166666667 970.333333333 766.5 971 c 128
 848.833333333 971.666666667 908.333333333 946.333333333 945 895 c 1
 945 977 l 1
 1016 977 l 1
 1016 754 l 1
 955 754 l 1
 943.666666667 858 870.5 910 735.5 910 c 128
 600.5 910 508 851.666666667 458 735 c 0
 441.333333333 696.333333333 433 642.166666667 433 572.5 c 128
 433 502.833333333 462.333333333 441.166666667 521 387.5 c 0
 579.666666667 333.833333333 659.333333333 306.666666667 760 306 c 128
 860.666666667 305.333333333 946.666666667 352.666666667 1018 448 c 1
 1040 379 l 1
308.5 1024 m 128
 208.166666667 907.333333333 158 770 158 612 c 128
 158 454 207.5 318.166666667 306.5 204.5 c 128
 405.5 90.8333333333 544.833333333 34 724.5 34 c 128
 904.166666667 34 1044.83333333 91.8333333333 1146.5 207.5 c 128
 1248.16666667 323.166666667 1299 459.666666667 1299 617 c 256
 1299 771.666666667 1248.16666667 907.333333333 1146.5 1024 c 128
 1044.83333333 1140.66666667 904.833333333 1199 726.5 1199 c 128
 548.166666667 1199 408.833333333 1140.66666667 308.5 1024 c 128
728 -23 m 256
 458.666666667 -23 268.666666667 87.3333333333 158 308 c 0
 110 403.333333333 86 506 86 616 c 256
 86 787.333333333 142.333333333 937.166666667 255 1065.5 c 128
 367.666666667 1193.83333333 525.333333333 1258 728 1258 c 0
 997.333333333 1258 1187.33333333 1147 1298 925 c 0
 1346 829.666666667 1370 726.666666667 1370 616 c 256
 1370 444 1313.83333333 294.5 1201.5 167.5 c 128
 1089.16666667 40.5 931.333333333 -23 728 -23 c 256
EndSplineSet
EndChar

StartChar: ordfeminine
Encoding: 170 170 124
Width: 805
GlyphClass: 2
Flags: HW
LayerCount: 2
Fore
SplineSet
332 641 m 128
 200.5777016 641 123 707.077481016 123 835 c 0
 123 942.333333333 199.333333333 996 352 996 c 0
 412.666666667 996 472.333333333 990 531 978 c 1
 531 1055 l 2
 531 1146.33333333 484 1192 390 1192 c 128
 296 1192 227 1169 183 1123 c 1
 147 1181 l 1
 197.666666667 1230.33333333 279.333333333 1255 392 1255 c 128
 525.380046202 1255 604 1193.47467189 604 1067 c 2
 604 710 l 1
 710 710 l 1
 710 650 l 1
 542 650 l 1
 533 708 l 1
 467.666666667 663.333333333 400.666666667 641 332 641 c 128
384.5 932 m 128
 270.026055191 932 197 916.805212052 197 817 c 0
 197 743 240.166666667 706 326.5 706 c 128
 412.833333333 706 481 728 531 772 c 1
 531 917 l 1
 491 927 442.166666667 932 384.5 932 c 128
EndSplineSet
EndChar

StartChar: guillemotleft
Encoding: 171 171 125
Width: 778
GlyphClass: 2
Flags: HW
LayerCount: 2
Fore
SplineSet
616 1043 m 1
 664 1043 l 1
 451 664 l 1
 664 281 l 1
 616 281 l 1
 343 664 l 1
 616 1043 l 1
348 1043 m 1
 396 1043 l 1
 184 664 l 1
 396 281 l 1
 348 281 l 1
 76 664 l 1
 348 1043 l 1
EndSplineSet
EndChar

StartChar: logicalnot
Encoding: 172 172 126
Width: 987
GlyphClass: 2
Flags: HW
LayerCount: 2
Fore
SplineSet
838 697 m 1
 838 304 l 1
 761 304 l 1
 761 617 l 1
 100 617 l 1
 100 697 l 1
 838 697 l 1
EndSplineSet
EndChar

StartChar: registered
Encoding: 174 174 128
Width: 1458
GlyphClass: 2
Flags: HW
LayerCount: 2
Fore
SplineSet
998 791 m 128
 998 676.849710445 914.5087389 597.33752645 802 590 c 1
 970 316 l 1
 1072 316 l 1
 1072 258 l 1
 921 258 l 1
 724 590 l 1
 566 590 l 1
 566 316 l 1
 662 316 l 1
 662 258 l 1
 411 258 l 1
 411 316 l 1
 497 316 l 1
 497 931 l 1
 404 931 l 1
 404 988 l 1
 782 988 l 2
 905.344363665 988 998 907.534097147 998 791 c 128
782 648 m 2
 875.086556012 648 933 700.859144524 933 803.5 c 128
 933 831.833333333 919.5 860.166666667 892.5 888.5 c 128
 865.5 916.833333333 828.666666667 931 782 931 c 2
 566 931 l 1
 566 648 l 1
 782 648 l 2
308.5 1024 m 128
 208.166666667 907.333333333 158 770 158 612 c 128
 158 454 207.5 318.166666667 306.5 204.5 c 128
 405.5 90.8333333333 544.833333333 34 724.5 34 c 128
 904.166666667 34 1044.83333333 91.8333333333 1146.5 207.5 c 128
 1248.16666667 323.166666667 1299 459.666666667 1299 617 c 256
 1299 771.666666667 1248.16666667 907.333333333 1146.5 1024 c 128
 1044.83333333 1140.66666667 904.833333333 1199 726.5 1199 c 128
 548.166666667 1199 408.833333333 1140.66666667 308.5 1024 c 128
728 -23 m 256
 458.666666667 -23 268.666666667 87.3333333333 158 308 c 0
 110 403.333333333 86 506 86 616 c 256
 86 787.333333333 142.333333333 937.166666667 255 1065.5 c 128
 367.666666667 1193.83333333 525.333333333 1258 728 1258 c 0
 997.333333333 1258 1187.33333333 1147 1298 925 c 0
 1346 829.666666667 1370 726.666666667 1370 616 c 256
 1370 444 1313.83333333 294.5 1201.5 167.5 c 128
 1089.16666667 40.5 931.333333333 -23 728 -23 c 256
EndSplineSet
EndChar

StartChar: macron
Encoding: 175 175 129
Width: 662
GlyphClass: 2
Flags: HW
LayerCount: 2
Fore
SplineSet
131 1123 m 1
 522 1123 l 1
 522 1058 l 1
 131 1058 l 1
 131 1123 l 1
EndSplineSet
EndChar

StartChar: degree
Encoding: 176 176 130
Width: 813
GlyphClass: 2
Flags: HW
LayerCount: 2
Fore
SplineSet
593 1052 m 257
 593 1163.77073612 521.039364307 1239 397 1239 c 256
 282.023131425 1239.85168051 203.773283499 1174.02447397 201 1052 c 257
 201 940.229263881 272.960635693 865 397 865 c 256
 511.976868575 864.148319492 590.226716501 929.975526035 593 1052 c 257
397 768 m 256
 315.666666667 768 253.333333333 786 210 822 c 0
 130 887.333333333 90 964 90 1052 c 256
 90 1140.66666667 120.833333333 1210.16666667 182.5 1260.5 c 128
 244.166666667 1310.83333333 315.666666667 1336 397 1336 c 256
 478.333333333 1336 540.666666667 1318 584 1282 c 0
 664 1216.66666667 704 1140 704 1052 c 256
 704 963.333333333 673.166666667 893.833333333 611.5 843.5 c 128
 549.833333333 793.166666667 478.333333333 768 397 768 c 256
EndSplineSet
EndChar

StartChar: plusminus
Encoding: 177 177 131
Width: 901
GlyphClass: 2
Flags: HW
LayerCount: 2
Fore
SplineSet
840 0 m 1
 66 0 l 1
 66 62 l 1
 840 62 l 1
 840 0 l 1
486 598 m 1
 842 598 l 1
 842 534 l 1
 486 534 l 1
 486 138 l 1
 424 138 l 1
 424 534 l 1
 68 534 l 1
 68 598 l 1
 424 598 l 1
 424 982 l 1
 486 982 l 1
 486 598 l 1
EndSplineSet
EndChar

StartChar: twosuperior
Encoding: 178 178 132
Width: 811
GlyphClass: 2
Flags: HW
LayerCount: 2
Fore
SplineSet
151 656.5 m 128
 151 771.273892093 275.156833586 881 390 881 c 0
 583.333333333 881 680 797.666666667 680 631 c 0
 680 525.666666667 566.333333333 370 339 164 c 0
 293.666666667 122.666666667 261 92 241 72 c 1
 639 72 l 1
 639 0 l 1
 133 0 l 1
 133 70 l 1
 145 82 165 100.333333333 193 125 c 0
 465.666666667 365 602 535 602 635 c 0
 602 753 540.666666667 812 418 812 c 0
 309.751914722 812 224 747.975646886 224 631 c 128
 224 607 228.333333333 575 237 535 c 1
 159 535 l 1
 153.666666667 558.333333333 151 598.833333333 151 656.5 c 128
EndSplineSet
EndChar

StartChar: threesuperior
Encoding: 179 179 133
Width: 811
GlyphClass: 2
Flags: HW
LayerCount: 2
Fore
SplineSet
589 651.5 m 128
 589 754.403513059 486.461060293 812 382 812 c 0
 282 812 213 775.333333333 175 702 c 1
 109 732 l 1
 160.333333333 832 252 882 384 882 c 0
 456.666666667 882 513.666666667 867 555 837 c 0
 629.666666667 783 667 716.333333333 667 637 c 128
 667 557.666666667 624 500 538 464 c 1
 634 428.666666667 682 357.333333333 682 250 c 0
 682 89.6060717878 536.217212076 -13.1263011866 371.5 -12.5 c 0
 253.449236938 -12.051137783 138.870506987 60.2284099776 92 161 c 1
 152 200 l 1
 199.333333333 102 274 52.8333333333 376 52.5 c 0
 504.301624921 52.080713644 606 119.086069775 606 258 c 0
 606 395.72167049 483.301822649 424 320 424 c 2
 284 424 l 1
 284 498 l 1
 318 498 l 2
 432.666666667 498 506.5 511.166666667 539.5 537.5 c 128
 572.5 563.833333333 589 601.833333333 589 651.5 c 128
EndSplineSet
EndChar

StartChar: acute
Encoding: 180 180 134
Width: 414
GlyphClass: 2
Flags: HW
LayerCount: 2
Fore
SplineSet
125 985 m 1
 184 1234 l 1
 310 1234 l 1
 156 985 l 1
 125 985 l 1
EndSplineSet
EndChar

StartChar: mu
Encoding: 181 181 135
AltUni2: 0003bc.ffffffff.0
Width: 1190
GlyphClass: 2
Flags: HW
LayerCount: 2
Fore
SplineSet
529 53 m 0
 619 53 727.333333333 93 854 173 c 1
 854 776 l 1
 680 776 l 1
 680 836 l 1
 933 836 l 1
 933 58 l 1
 1106 58 l 1
 1106 0 l 1
 866 0 l 1
 858 104 l 1
 755.333333333 42.6666666667 681.5 7.66666666667 636.5 -1 c 128
 591.5 -9.66666666667 541.833333333 -14 487.5 -14 c 128
 433.166666667 -14 383.666666667 4 339 40 c 1
 339 -232 l 1
 259 -232 l 1
 259 776 l 1
 84 776 l 1
 84 836 l 1
 338 836 l 1
 339 208 l 1
 345 104.666666667 408.333333333 53 529 53 c 0
EndSplineSet
EndChar

StartChar: paragraph
Encoding: 182 182 136
Width: 1020
GlyphClass: 2
Flags: HW
LayerCount: 2
Fore
SplineSet
709 661 m 1
 513 661 l 1
 513 -23 l 1
 432 -23 l 1
 432 661 l 1
 396 661 l 2
 290 661 207 690.333333333 147 749 c 128
 87 807.666666667 57 875.333333333 57 952 c 128
 57 1028.66666667 87 1094.83333333 147 1150.5 c 128
 207 1206.16666667 290 1234 396 1234 c 2
 956 1234 l 1
 956 1171 l 1
 790 1171 l 1
 790 -23 l 1
 709 -23 l 1
 709 661 l 1
EndSplineSet
EndChar

StartChar: periodcentered
Encoding: 183 183 137
Width: 369
GlyphClass: 2
Flags: HW
LayerCount: 2
Fore
SplineSet
242 815 m 1
 242 695 l 1
 125 695 l 1
 125 815 l 1
 242 815 l 1
EndSplineSet
EndChar

StartChar: cedilla
Encoding: 184 184 138
Width: 430
GlyphClass: 2
Flags: HW
LayerCount: 2
Fore
SplineSet
336 -188 m 0
 336 -246.666666667 291 -276 201 -276 c 0
 168.333333333 -276 134.666666667 -269.333333333 100 -256 c 1
 100 -210 l 1
 131.333333333 -219.333333333 161.166666667 -224 189.5 -224 c 128
 217.833333333 -224 232 -212.166666667 232 -188.5 c 128
 232 -164.833333333 198.333333333 -150 131 -144 c 1
 189 6 l 1
 239 6 l 1
 200 -108 l 1
 212 -108 l 2
 252.666666667 -108 283.5 -117.333333333 304.5 -136 c 128
 325.5 -154.666666667 336 -172 336 -188 c 0
EndSplineSet
EndChar

StartChar: onesuperior
Encoding: 185 185 139
Width: 551
GlyphClass: 2
Flags: HW
LayerCount: 2
Fore
SplineSet
439 61 m 1
 439 0 l 1
 127 0 l 1
 127 61 l 1
 248 61 l 1
 248 787 l 1
 144 767 l 1
 127 832 l 1
 322 869 l 1
 322 61 l 1
 439 61 l 1
EndSplineSet
EndChar

StartChar: ordmasculine
Encoding: 186 186 140
Width: 874
GlyphClass: 2
Flags: HW
LayerCount: 2
Fore
SplineSet
435 706 m 256
 585.581252251 706 682.515902155 801.264829424 681.5 976 c 128
 680.803618446 1095.77762737 558.654198523 1192 435 1192 c 256
 329 1192 254.666666667 1146.33333333 212 1055 c 0
 198 1025 191 981 191 923 c 128
 191 802.065231641 310.996363351 706 435 706 c 256
660 723.5 m 128
 596.666666667 668.5 521.666666667 641 435 641 c 256
 349 641.666666667 283.666666667 661.333333333 239 700 c 0
 157.666666667 770 117 853.166666667 117 949.5 c 128
 117 1045.83333333 148.5 1120.83333333 211.5 1174.5 c 128
 274.5 1228.16666667 349 1255 435 1255 c 256
 522.333333333 1255.66666667 588.333333333 1236.66666667 633 1198 c 0
 714.333333333 1128 755 1045.16666667 755 949.5 c 128
 755 853.833333333 723.333333333 778.5 660 723.5 c 128
EndSplineSet
EndChar

StartChar: guillemotright
Encoding: 187 187 141
Width: 778
GlyphClass: 2
Flags: HW
LayerCount: 2
Fore
SplineSet
437 664 m 1
 165 281 l 1
 117 281 l 1
 329 664 l 1
 117 1043 l 1
 165 1043 l 1
 437 664 l 1
705 664 m 1
 432 281 l 1
 384 281 l 1
 597 664 l 1
 384 1043 l 1
 432 1043 l 1
 705 664 l 1
EndSplineSet
EndChar

StartChar: onequarter
Encoding: 188 188 142
Width: 1348
GlyphClass: 2
Flags: HW
LayerCount: 2
Fore
SplineSet
398 426 m 1
 398 365 l 1
 86 365 l 1
 86 426 l 1
 207 426 l 1
 207 1152 l 1
 103 1132 l 1
 86 1197 l 1
 281 1234 l 1
 281 426 l 1
 398 426 l 1
717 316 m 1
 1055 866 l 1
 1147 866 l 1
 1147 323 l 1
 1325 323 l 1
 1325 260 l 1
 1147 260 l 1
 1147 61 l 1
 1259 61 l 1
 1259 0 l 1
 962 0 l 1
 962 61 l 1
 1074 61 l 1
 1074 260 l 1
 726 260 l 1
 717 316 l 1
1074 323 m 1
 1074 768 l 1
 982.64530273 614.846536929 897.013212469 477.500290059 807 323 c 1
 1074 323 l 1
EndSplineSet
Refer: 295 8260 N 1 0 0 1 366 0 2
EndChar

StartChar: onehalf
Encoding: 189 189 143
Width: 1339
GlyphClass: 2
Flags: HW
LayerCount: 2
Fore
SplineSet
398 426 m 1
 398 365 l 1
 86 365 l 1
 86 426 l 1
 207 426 l 1
 207 1152 l 1
 103 1132 l 1
 86 1197 l 1
 281 1234 l 1
 281 426 l 1
 398 426 l 1
1012 881 m 0
 1169.75010334 881 1273 789.725430775 1273 631 c 0
 1273 525.666666667 1159.33333333 370 932 164 c 0
 886.666666667 122.666666667 854 92 834 72 c 1
 1232 72 l 1
 1232 0 l 1
 726 0 l 1
 726 70 l 1
 738 82 758 100.333333333 786 125 c 0
 1058.66666667 365.666666667 1195 537.333333333 1195 640 c 0
 1195 754.666666667 1126 812 988 812 c 0
 914.666666667 812 862.666666667 775.333333333 832 702 c 0
 815.488288288 660.720720721 814.821621621 605.054054054 830 535 c 1
 752 535 l 1
 746.666666667 558.333333333 744 599 744 657 c 0
 744 715 769 766.833333333 819 812.5 c 0
 869 858.166666667 933.333333333 881 1012 881 c 0
EndSplineSet
Refer: 295 8260 N 1 0 0 1 327 0 2
EndChar

StartChar: threequarters
Encoding: 190 190 144
Width: 1600
GlyphClass: 2
Flags: HW
LayerCount: 2
Fore
SplineSet
555 1001 m 0
 555 1117.83968984 461.665835796 1177 348 1177 c 0
 248 1177 179 1140.33333333 141 1067 c 1
 75 1097 l 1
 126.333333333 1197 218 1247 350 1247 c 0
 422.666666667 1247 488 1226 546 1184 c 0
 604 1142 633 1081.33333333 633 1002 c 0
 633 922.666666667 590 865 504 829 c 1
 600 793.666666667 648 715.666666667 648 595 c 0
 648 532.333333333 618.333333333 476.166666667 559 426.5 c 0
 499.666666667 376.833333333 426 352 338 352 c 0
 219.144776191 352 104.277298448 424.189943415 58 526 c 1
 118 565 l 1
 165.333333333 467 244.666666667 418 356 418 c 0
 463.710941061 418 572 499.205587944 572 603 c 0
 572 700.900809076 537.453098336 738.396670032 469.5 768 c 0
 435.833333333 782.666666667 374.666666667 789.666666667 286 789 c 2
 250 789 l 1
 250 863 l 1
 284 863 l 2
 367.333333333 862.333333333 422.333333333 866.666666667 449 876 c 0
 519.666666667 899.333333333 555 941 555 1001 c 0
928 316 m 1
 1266 866 l 1
 1358 866 l 1
 1358 323 l 1
 1536 323 l 1
 1536 260 l 1
 1358 260 l 1
 1358 61 l 1
 1470 61 l 1
 1470 0 l 1
 1173 0 l 1
 1173 61 l 1
 1285 61 l 1
 1285 260 l 1
 937 260 l 1
 928 316 l 1
1285 323 m 1
 1285 768 l 1
 1193.64530273 614.846536929 1108.01321247 477.500290059 1018 323 c 1
 1285 323 l 1
EndSplineSet
Refer: 295 8260 N 1 0 0 1 601 0 2
EndChar

StartChar: questiondown
Encoding: 191 191 145
Width: 692
GlyphClass: 2
Flags: HW
LayerCount: 2
Fore
SplineSet
378 49 m 0
 500 49 581.333333333 98 622 196 c 1
 683 160 l 1
 632.333333333 38 534 -23.1666666667 388 -23.5 c 0
 197.771390554 -23.9343118937 61 84.3156368183 61 294 c 128
 61 351.333333333 73.3333333333 398 98 434 c 128
 122.666666667 470 161.166666667 510.666666667 213.5 556 c 128
 265.833333333 601.333333333 306.833333333 649 336.5 699 c 128
 366.166666667 749 384 819.666666667 390 911 c 1
 423 911 l 1
 422.333333333 741 374.666666667 612.666666667 280 526 c 0
 218 469.333333333 178.833333333 424.5 162.5 391.5 c 128
 146.166666667 358.5 138 315.333333333 138 262 c 128
 138 208.666666667 158.833333333 159.833333333 200.5 115.5 c 128
 242.166666667 71.1666666667 301.333333333 49 378 49 c 0
354 1223 m 1
 438 1223 l 1
 438 1144 l 1
 354 1144 l 1
 354 1223 l 1
EndSplineSet
EndChar

StartChar: AE
Encoding: 198 198 152
Width: 1970
GlyphClass: 2
Flags: HW
LayerCount: 2
Fore
SplineSet
918 1164 m 1
 1012 666 l 1
 1444 666 l 1
 1414 824 l 1
 1481 824 l 1
 1555 424 l 1
 1488 424 l 1
 1457 596 l 1
 1025 596 l 1
 1123 70 l 1
 1806 70 l 1
 1750 376 l 1
 1827 376 l 1
 1896 0 l 1
 868 0 l 1
 880 62 l 1
 1038 62 l 1
 961 503 l 1
 486 503 l 1
 244 62 l 1
 402 62 l 1
 390 0 l 1
 -12 0 l 1
 0 62 l 1
 157 62 l 1
 781 1171 l 1
 623 1171 l 1
 635 1234 l 1
 1645 1234 l 1
 1715 858 l 1
 1638 858 l 1
 1582 1164 l 1
 918 1164 l 1
519 564 m 1
 949 564 l 1
 845 1153 l 1
 519 564 l 1
EndSplineSet
EndChar

StartChar: Eth
Encoding: 208 208 162
Width: 1434
GlyphClass: 2
Flags: HW
LayerCount: 2
Fore
SplineSet
791 1234 m 2
 1019.66666667 1234 1181.33333333 1126.66666667 1276 912 c 0
 1316 820.666666667 1336 729 1336 637 c 0
 1336 455 1288 303.333333333 1192 182 c 128
 1096 60.6666666667 962.333333333 0 791 0 c 2
 98 0 l 1
 98 62 l 1
 264 62 l 1
 264 597 l 1
 109 597 l 1
 109 662 l 1
 264 662 l 1
 264 1171 l 1
 98 1171 l 1
 98 1234 l 1
 791 1234 l 2
346 662 m 1
 500 662 l 1
 500 597 l 1
 346 597 l 1
 346 62 l 1
 790 62 l 2
 936.666666667 62 1050.33333333 116.666666667 1131 226 c 128
 1211.66666667 335.333333333 1252 465.333333333 1252 616 c 0
 1252 828 1183.66666667 985.333333333 1047 1088 c 0
 974.333333333 1142.66666667 888.666666667 1170.33333333 790 1171 c 2
 346 1171 l 1
 346 662 l 1
EndSplineSet
EndChar

StartChar: multiply
Encoding: 215 215 169
Width: 637
GlyphClass: 2
Flags: HW
LayerCount: 2
Fore
SplineSet
122 812 m 1
 325 610 l 1
 529 814 l 1
 573 769 l 1
 371 565 l 1
 573 361 l 1
 529 317 l 1
 325 521 l 1
 122 318 l 1
 78 362 l 1
 281 565 l 1
 78 768 l 1
 122 812 l 1
EndSplineSet
EndChar

StartChar: Oslash
Encoding: 216 216 170
Width: 1440
GlyphClass: 2
Flags: HW
LayerCount: 2
Fore
SplineSet
1160 1095 m 1
 1294.66666667 971 1362 816.5 1362 631.5 c 128
 1362 446.5 1305.83333333 291.166666667 1193.5 165.5 c 128
 1081.16666667 39.8333333333 924 -23 722 -23 c 0
 585.333333333 -23 466.333333333 8.66666666667 365 72 c 1
 276 -42 l 1
 228 -8 l 1
 317 105 l 1
 160.333333333 227 82 396.333333333 82 613 c 0
 82 785 138.166666667 935 250.5 1063 c 128
 362.833333333 1191 520 1255 722 1255 c 0
 878 1255 1010 1213.66666667 1118 1131 c 1
 1204 1242 l 1
 1250 1210 l 1
 1160 1095 l 1
1069 1069 m 1
 971.666666667 1144.33333333 856 1182 722 1182 c 0
 488.666666667 1182 324 1083.33333333 228 886 c 0
 186.666666667 801.333333333 166 724 166 654 c 0
 166 432.666666667 231.666666667 269.666666667 363 165 c 1
 1069 1069 l 1
411 131 m 1
 499 75.6666666667 588 48 678 48 c 0
 938 48 1116.33333333 144.333333333 1213 337 c 0
 1256.33333333 423.666666667 1278 510.666666667 1278 598 c 0
 1278 776.666666667 1222.33333333 921 1111 1031 c 1
 411 131 l 1
EndSplineSet
EndChar

StartChar: Thorn
Encoding: 222 222 176
Width: 1130
GlyphClass: 2
Flags: HW
LayerCount: 2
Fore
SplineSet
338 1042 m 1
 736 1042 l 2
 844.666666667 1042 928.166666667 1012.5 986.5 953.5 c 128
 1044.83333333 894.5 1074 823.166666667 1074 739.5 c 128
 1074 655.833333333 1043.66666667 581.833333333 983 517.5 c 128
 922.333333333 453.166666667 840 421 736 421 c 2
 338 421 l 1
 338 62 l 1
 508 62 l 1
 508 0 l 1
 104 0 l 1
 104 62 l 1
 257 62 l 1
 257 1171 l 1
 106 1171 l 1
 106 1234 l 1
 493 1234 l 1
 493 1171 l 1
 338 1171 l 1
 338 1042 l 1
736 486 m 2
 895.597320984 486 995 586.137529704 995 767 c 128
 995 815.666666667 972.5 863.166666667 927.5 909.5 c 128
 882.5 955.833333333 818.666666667 979 736 979 c 2
 338 979 l 1
 338 486 l 1
 736 486 l 2
EndSplineSet
EndChar

StartChar: germandbls
Encoding: 223 223 177
Width: 1081
GlyphClass: 2
Flags: HW
LayerCount: 2
Fore
SplineSet
694 676 m 1
 890.577611345 668.58197693 1048 533.221499177 1048 337 c 0
 1048 179 959 75.3333333333 781 26 c 0
 719.666666667 8.66666666667 646.666666667 0 562 0 c 1
 562 62 l 1
 833.333333333 62 969 153.666666667 969 337 c 0
 969 475 898 568 756 616 c 0
 705.333333333 633.333333333 643.333333333 641.666666667 570 641 c 1
 570 685 l 1
 653.333333333 689 718.166666667 717.666666667 764.5 771 c 128
 810.833333333 824.333333333 834 883.833333333 834 949.5 c 128
 834 1100.29707955 717.706559712 1180 554 1180 c 128
 350.265706489 1180 295 1072.57149045 295 856 c 2
 295 62 l 1
 411 62 l 1
 411 0 l 1
 61 0 l 1
 61 62 l 1
 214 62 l 1
 214 851 l 2
 214 1120.33333333 330.333333333 1255 563 1255 c 0
 764.553669726 1255 913.199416455 1131.83660738 912.5 936 c 0
 912.032364041 805.061931564 825.352286515 702.270457303 694 676 c 1
EndSplineSet
EndChar

StartChar: ae
Encoding: 230 230 184
Width: 1499
GlyphClass: 2
Flags: HW
LayerCount: 2
Fore
SplineSet
756 400 m 1
 756 164.446267838 857.211708514 52 1081 52 c 1
 1211 49.3333333333 1322.33333333 100 1415 204 c 1
 1448 149 l 1
 1336.66666667 40.3333333333 1213.16666667 -14 1077.5 -14 c 128
 941.833333333 -14 836.333333333 29.3333333333 761 116 c 1
 666.333333333 29.3333333333 542 -14 388 -14 c 0
 182.666666667 -14 80 73.3333333333 80 248 c 0
 80 398.666666667 188 474.333333333 404 475 c 0
 490 475 582 465.333333333 680 446 c 1
 674 575 l 1
 674 716.333333333 594.666666667 787 436 787 c 0
 309.333333333 787 216 756.666666667 156 696 c 1
 120 755 l 1
 188.666666667 821 301.666666667 854 459 854 c 128
 616.333333333 854 711.333333333 783 744 641 c 1
 819.333333333 783 937 854 1097 854 c 0
 1324.14947584 854 1447 635.01832043 1447 400 c 1
 756 400 l 1
1369 466 m 1
 1357.66666667 608.666666667 1304 706.666666667 1208 760 c 0
 1176 778 1136 787 1088 787 c 0
 992.666666667 787 915 755 855 691 c 128
 795 627 762.666666667 552 758 466 c 1
 1369 466 l 1
429.5 410 m 128
 267.2614418 410 161 377.771985561 161 232 c 0
 161 112.666666667 241.666666667 53 403 53 c 0
 558.01267214 53 628.479458707 82.8848464498 731 164 c 1
 697 232 680 305.333333333 680 384 c 1
 588.666666667 401.333333333 505.166666667 410 429.5 410 c 128
EndSplineSet
EndChar

StartChar: eth
Encoding: 240 240 194
Width: 920
GlyphClass: 2
Flags: HW
LayerCount: 2
Fore
SplineSet
451 49 m 128
 642.33841071 49 762 169.690743338 762 356.5 c 128
 762 446.833333333 730.833333333 519.666666667 668.5 575 c 128
 606.166666667 630.333333333 532.333333333 658 447 658 c 0
 258.757634937 658 135 543.734986129 135 329.5 c 128
 135 262.5 162.833333333 199 218.5 139 c 128
 274.166666667 79 351.666666667 49 451 49 c 128
465 1143 m 1
 794 1230 l 1
 818 1175 l 1
 493 1091 l 1
 705 697 l 1
 794.333333333 547 839 437 839 367 c 0
 839 245.666666667 799.666666667 150.333333333 721 81 c 128
 642.333333333 11.6666666667 561.333333333 -23 478 -23 c 0
 336 -23 229.666666667 15.6666666667 159 93 c 128
 88.3333333333 170.333333333 53 260.5 53 363.5 c 128
 53 466.5 90.8333333333 552.666666667 166.5 622 c 128
 242.166666667 691.333333333 322.333333333 726 407 726 c 128
 491.666666667 726 566.666666667 710 632 678 c 1
 415 1071 l 1
 94 988 l 1
 75 1040 l 1
 386 1122 l 1
 280 1314 l 1
 347 1361 l 1
 465 1143 l 1
EndSplineSet
EndChar

StartChar: divide
Encoding: 247 247 201
Width: 522
GlyphClass: 2
Flags: HW
LayerCount: 2
Fore
SplineSet
529 413 m 1
 0 413 l 1
 0 475 l 1
 529 475 l 1
 529 413 l 1
324 276 m 1
 324 156 l 1
 208 156 l 1
 208 276 l 1
 324 276 l 1
324 725 m 1
 324 605 l 1
 208 605 l 1
 208 725 l 1
 324 725 l 1
EndSplineSet
EndChar

StartChar: oslash
Encoding: 248 248 202
Width: 997
GlyphClass: 2
Flags: HW
LayerCount: 2
Fore
SplineSet
297 29 m 1
 156.268311781 92.8782130923 52.8798457566 221.856504044 51 423 c 1
 51 558.333333333 95.3333333333 664 184 740 c 128
 272.666666667 816 378 854 500 854 c 0
 569.333333333 854 635.333333333 841 698 815 c 1
 813 1039 l 1
 854 1015 l 1
 741 794 l 1
 882.333333333 716 953 600.5 953 447.5 c 128
 953 294.5 908 179.333333333 818 102 c 128
 728 24.6666666667 622 -14 500 -14 c 0
 446 -14 393 -5.33333333333 341 12 c 1
 234 -196 l 1
 194 -172 l 1
 297 29 l 1
708 730 m 1
 372 74 l 1
 460 44.6666666667 537.333333333 41.6666666667 604 65 c 128
 670.666666667 88.3333333333 721.333333333 115.333333333 756 146 c 0
 833.333333333 214.666666667 872.166666667 312.333333333 872.5 439 c 128
 872.833333333 565.666666667 818 662.666666667 708 730 c 1
666 752 m 1
 613.333333333 775.333333333 561 787 509 787 c 0
 404.333333333 787 315.5 754.666666667 242.5 690 c 128
 169.5 625.333333333 133 536.666666667 133 424 c 0
 133 266 198.333333333 155.333333333 329 92 c 1
 666 752 l 1
EndSplineSet
EndChar

StartChar: thorn
Encoding: 254 254 208
Width: 1083
GlyphClass: 2
Flags: HW
LayerCount: 2
Fore
SplineSet
252 1234 m 1
 252 695 l 1
 342 801 458.166666667 854 600.5 854 c 128
 742.833333333 854 853.333333333 812.166666667 932 728.5 c 128
 1010.66666667 644.833333333 1050 546.666666667 1050 434 c 0
 1050 268.666666667 985.666666667 141 857 51 c 0
 789 3 715.666666667 -21 637 -21 c 0
 558.333333333 -21 481.666666667 -4.66666666667 407 28 c 0
 332.333333333 60.6666666667 280.666666667 93 252 125 c 1
 249 -360 l 1
 8 -360 l 1
 8 -300 l 1
 173 -300 l 1
 173 1174 l 1
 24 1174 l 1
 24 1234 l 1
 252 1234 l 1
971 388 m 0
 971 636.711266439 840.767265813 787 596 787 c 128
 476.666666667 787 362 731 252 619 c 1
 252 193 l 1
 372 99.6666666667 490.833333333 53 608.5 53 c 128
 726.166666667 53 816 90.3333333333 878 165 c 128
 940 239.666666667 971 314 971 388 c 0
EndSplineSet
EndChar

StartChar: hbar
Encoding: 295 295 210
Width: 1204
GlyphClass: 2
Flags: HW
LayerCount: 2
Fore
SplineSet
93 1176 m 1
 93 1234 l 1
 345 1234 l 1
 345 1012 l 1
 577 1012 l 1
 577 949 l 1
 345 949 l 1
 345 736 l 1
 457 798 535.833333333 833.166666667 581.5 841.5 c 128
 627.166666667 849.833333333 668.666666667 854 706 854 c 0
 795.333333333 854 861.166666667 830.5 903.5 783.5 c 128
 945.833333333 736.5 967 681 967 617 c 2
 967 60 l 1
 1142 60 l 1
 1142 0 l 1
 730 0 l 1
 730 60 l 1
 888 60 l 1
 888 601 l 2
 888 725 823.333333333 787 694 787 c 0
 610 787 520.666666667 761 426 709 c 0
 399.333333333 694.333333333 372.333333333 679.333333333 345 664 c 1
 345 60 l 1
 537 60 l 1
 537 0 l 1
 104 0 l 1
 104 60 l 1
 266 60 l 1
 266 949 l 1
 92 949 l 1
 92 1012 l 1
 266 1012 l 1
 266 1176 l 1
 93 1176 l 1
EndSplineSet
EndChar

StartChar: dotlessi
Encoding: 305 305 213
Width: 569
GlyphClass: 2
Flags: HW
LayerCount: 2
Fore
SplineSet
106 776 m 1
 106 836 l 1
 335 836 l 1
 335 60 l 1
 489 60 l 1
 489 0 l 1
 106 0 l 1
 106 60 l 1
 256 60 l 1
 256 776 l 1
 106 776 l 1
EndSplineSet
EndChar

StartChar: IJ
Encoding: 306 306 214
Width: 1073
GlyphClass: 2
Flags: HW
LayerCount: 2
Fore
SplineSet
719 -41 m 2
 784.18930946 -41 793 -0.771206312402 793 59 c 2
 793 1174 l 1
 654 1174 l 1
 654 1234 l 1
 1014 1234 l 1
 1014 1174 l 1
 875 1174 l 1
 875 60 l 2
 875.666666667 -40.6666666667 838 -93.6666666667 762 -99 c 0
 742 -100.333333333 723.333333333 -101 706 -101 c 2
 635 -101 l 1
 635 -41 l 1
 719 -41 l 2
505 1234 m 1
 505 1171 l 1
 345 1171 l 1
 345 62 l 1
 505 62 l 1
 505 0 l 1
 102 0 l 1
 102 62 l 1
 263 62 l 1
 263 1171 l 1
 102 1171 l 1
 102 1234 l 1
 505 1234 l 1
EndSplineSet
EndChar

StartChar: ij
Encoding: 307 307 215
Width: 1008
GlyphClass: 2
Flags: HW
LayerCount: 2
Fore
SplineSet
742 779 m 1
 605 779 l 1
 605 836 l 1
 821 836 l 1
 821 -22 l 2
 821.666666667 -104 814 -158.666666667 798 -186 c 0
 765.333333333 -242.666666667 701.666666667 -271 607 -271 c 2
 527 -271 l 1
 527 -211 l 1
 605 -211 l 2
 667.666666667 -211 706.166666667 -198.666666667 720.5 -174 c 0
 734.833333333 -149.333333333 742 -102.666666667 742 -34 c 2
 742 779 l 1
785.5 1092 m 128
 749.455777309 1092 724 1115.52554651 724 1148 c 0
 724 1186 744.666666667 1205 786 1205 c 256
 827.333333333 1205 848 1186 848 1148 c 0
 848 1115.60859719 821.42168503 1092 785.5 1092 c 128
298.5 1092 m 128
 262.455777309 1092 237 1115.52554651 237 1148 c 0
 237 1186 257.666666667 1205 299 1205 c 256
 335.874861418 1205 362 1182.45625855 362 1149 c 128
 362 1115.80806379 334.897760555 1092 298.5 1092 c 128
113 776 m 1
 113 836 l 1
 342 836 l 1
 342 60 l 1
 496 60 l 1
 496 0 l 1
 113 0 l 1
 113 60 l 1
 263 60 l 1
 263 776 l 1
 113 776 l 1
EndSplineSet
EndChar

StartChar: kgreenlandic
Encoding: 312 312 219
Width: 1141
GlyphClass: 2
Flags: HW
LayerCount: 2
Fore
SplineSet
102 778 m 1
 102 838 l 1
 367 838 l 1
 367 445 l 1
 761 776 l 1
 637 776 l 1
 637 836 l 1
 1022 836 l 1
 1022 776 l 1
 863 776 l 1
 460 439 l 1
 906 60 l 1
 1057 60 l 1
 1057 0 l 1
 674 0 l 1
 674 60 l 1
 797 60 l 1
 367 422 l 1
 367 60 l 1
 551 60 l 1
 551 0 l 1
 102 0 l 1
 102 60 l 1
 288 60 l 1
 288 778 l 1
 102 778 l 1
EndSplineSet
EndChar

StartChar: Lslash
Encoding: 321 321 222
Width: 1169
GlyphClass: 2
Flags: HW
LayerCount: 2
Fore
SplineSet
493 1234 m 1
 493 1174 l 1
 354 1174 l 1
 354 764 l 1
 562 887 l 1
 562 807 l 1
 354 684 l 1
 354 70 l 1
 982 70 l 1
 982 412 l 1
 1058 412 l 1
 1058 0 l 1
 133 0 l 1
 133 70 l 1
 272 70 l 1
 272 635 l 1
 140 557 l 1
 140 637 l 1
 272 715 l 1
 272 1174 l 1
 133 1174 l 1
 133 1234 l 1
 493 1234 l 1
EndSplineSet
EndChar

StartChar: lslash
Encoding: 322 322 223
Width: 680
GlyphClass: 2
Flags: HW
LayerCount: 2
Fore
SplineSet
563 887 m 1
 563 807 l 1
 392 706 l 1
 392 60 l 1
 576 60 l 1
 576 0 l 1
 127 0 l 1
 127 60 l 1
 313 60 l 1
 313 659 l 1
 141 557 l 1
 141 637 l 1
 313 739 l 1
 313 1174 l 1
 127 1174 l 1
 127 1234 l 1
 392 1234 l 1
 392 786 l 1
 563 887 l 1
EndSplineSet
EndChar

StartChar: OE
Encoding: 338 338 226
Width: 1937
GlyphClass: 2
Flags: HW
LayerCount: 2
Fore
SplineSet
1068 1164 m 1
 1068 666 l 1
 1501 666 l 1
 1501 824 l 1
 1568 824 l 1
 1568 424 l 1
 1501 424 l 1
 1501 596 l 1
 1068 596 l 1
 1068 70 l 1
 1729 70 l 1
 1729 376 l 1
 1806 376 l 1
 1806 0 l 1
 716 0 l 2
 514 0 356.833333333 60.6666666667 244.5 182 c 128
 132.166666667 303.333333333 76 447.5 76 614.5 c 128
 76 781.5 132.5 926.5 245.5 1049.5 c 128
 358.5 1172.5 515.333333333 1234 716 1234 c 2
 1784 1234 l 1
 1784 858 l 1
 1707 858 l 1
 1707 1164 l 1
 1068 1164 l 1
986 1158 m 1
 716 1158 l 2
 541.333333333 1158 405 1104 307 996 c 128
 209 888 160 760 160 612 c 128
 160 464 208.5 336.666666667 305.5 230 c 128
 402.5 123.333333333 539.333333333 70 716 70 c 2
 986 70 l 1
 986 1158 l 1
EndSplineSet
EndChar

StartChar: oe
Encoding: 339 339 227
Width: 1720
GlyphClass: 2
Flags: HW
LayerCount: 2
Fore
SplineSet
509 854 m 128
 679.670338161 854 835.312251611 754.664034745 898 610 c 1
 966.666666667 772.666666667 1098 854 1292 854 c 0
 1410 854 1503.83333333 810.333333333 1573.5 723 c 128
 1643.16666667 635.666666667 1678 528 1678 400 c 1
 939 400 l 1
 950.333333333 232.666666667 1024.66666667 124 1162 74 c 0
 1202 59.3333333333 1244 52 1288 52 c 0
 1418.66666667 52 1530 102.666666667 1622 204 c 1
 1655 149 l 1
 1543.66666667 40.3333333333 1421.5 -14 1288.5 -14 c 128
 1111.04528814 -14 962.410287086 85.4809569272 897 232 c 1
 836.343671653 84.0982678665 697.881775716 -14 488 -14 c 0
 376 -14 276.5 24.8333333333 189.5 102.5 c 128
 102.5 180.166666667 59 286.833333333 59 422.5 c 128
 59 558.166666667 102.333333333 664 189 740 c 128
 275.666666667 816 382.333333333 854 509 854 c 128
749.5 690 m 128
 677.833333333 754.666666667 594 787 498 787 c 128
 402 787 318.5 755 247.5 691 c 128
 176.5 627 141 537.166666667 141 421.5 c 128
 141 305.833333333 176.333333333 215.5 247 150.5 c 128
 317.666666667 85.5 401.333333333 53 498 53 c 128
 594.666666667 53 678.666666667 85.8333333333 750 151.5 c 128
 821.333333333 217.166666667 857 307.166666667 857 421.5 c 128
 857 535.833333333 821.166666667 625.333333333 749.5 690 c 128
1600 466 m 1
 1588.66666667 608 1527.66666667 706 1417 760 c 0
 1380.33333333 778 1336.33333333 787 1285 787 c 0
 1183.66666667 787 1102 754.666666667 1040 690 c 128
 978 625.333333333 945 550.666666667 941 466 c 1
 1600 466 l 1
EndSplineSet
EndChar

StartChar: florin
Encoding: 402 402 238
Width: 729
GlyphClass: 2
Flags: HW
LayerCount: 2
Fore
SplineSet
710 1165 m 1
 675.333333333 1177 644.333333333 1183 617 1183 c 0
 555 1183 516.333333333 1148.66666667 501 1080 c 1
 434 836 l 1
 636 836 l 1
 621 779 l 1
 418 779 l 1
 220 60 l 2
 194.666666667 -29.3333333333 138.666666667 -77.3333333333 52 -84 c 0
 28 -85.3333333333 4.66666666667 -86 -18 -86 c 1
 -2 -24 l 1
 94.2816491408 -24 123.584315364 -1.92243426076 141 60 c 2
 339 779 l 1
 184 779 l 1
 200 836 l 1
 354 836 l 1
 422 1078 l 1
 450 1188.66666667 512.666666667 1244 610 1244 c 0
 648.666666667 1244 686.666666667 1235.66666667 724 1219 c 1
 710 1165 l 1
EndSplineSet
EndChar

StartChar: dotlessj
Encoding: 567 567 267
Width: 397
GlyphClass: 2
Flags: HW
LayerCount: 2
Fore
SplineSet
74 -199 m 2
 159.815077677 -199 172 -103.466766851 172 0 c 2
 172 779 l 1
 25 779 l 1
 25 860 l 1
 241 860 l 1
 241 -44 l 2
 241 -109.555555555 232.833333333 -155.944444444 216.5 -183.166666667 c 0
 181.366666667 -241.722222222 114.533333333 -271 16 -271 c 2
 -80 -271 l 1
 -80 -199 l 1
 74 -199 l 2
EndSplineSet
EndChar

StartChar: circumflex
Encoding: 710 710 268
Width: 598
GlyphClass: 2
Flags: HW
LayerCount: 2
Fore
SplineSet
106 922 m 1
 245 1195 l 1
 340 1195 l 1
 486 922 l 1
 397 922 l 1
 293 1146 l 1
 188 922 l 1
 106 922 l 1
EndSplineSet
EndChar

StartChar: caron
Encoding: 711 711 269
Width: 598
GlyphClass: 2
Flags: HW
LayerCount: 2
Fore
SplineSet
191 1195 m 1
 296 971 l 1
 400 1195 l 1
 489 1195 l 1
 343 922 l 1
 248 922 l 1
 109 1195 l 1
 191 1195 l 1
EndSplineSet
EndChar

StartChar: breve
Encoding: 728 728 270
Width: 586
GlyphClass: 2
Flags: HW
LayerCount: 2
Fore
SplineSet
182 1248 m 1
 187.219801122 1189.53822744 231.159427373 1136 286 1136 c 0
 361.333333333 1136 404 1173.33333333 414 1248 c 1
 457 1248 l 1
 448.375388886 1152.34522219 396.886756517 1080 296 1080 c 256
 207.819387043 1080 142.657576292 1150.07635915 131 1248 c 1
 182 1248 l 1
EndSplineSet
EndChar

StartChar: dotaccent
Encoding: 729 729 271
Width: 397
GlyphClass: 2
Flags: HW
LayerCount: 2
Fore
SplineSet
257 1184 m 1
 257 1064 l 1
 141 1064 l 1
 141 1184 l 1
 257 1184 l 1
EndSplineSet
EndChar

StartChar: ring
Encoding: 730 730 272
Width: 590
GlyphClass: 2
Flags: HW
LayerCount: 2
Fore
SplineSet
418 1165.5 m 128
 418 1227.64781658 370.874644492 1291 310 1291 c 0
 218.666666667 1291 173 1244.66666667 173 1152 c 0
 173 1092.4071458 231.054718293 1039 296.5 1039 c 128
 368.955878023 1039 418 1095.80349843 418 1165.5 c 128
296 1336 m 256
 392.329904321 1336 466 1273.71856783 466 1165 c 256
 466 1068.34208187 403.764763136 997.565827694 296 995 c 257
 198.825017231 994.196900969 125 1055.95905959 125 1165 c 256
 125 1259.31849998 187.677335109 1336 296 1336 c 256
EndSplineSet
EndChar

StartChar: ogonek
Encoding: 731 731 273
Width: 530
GlyphClass: 2
Flags: HW
LayerCount: 2
Fore
SplineSet
303 -364 m 0
 180.333333333 -364 119 -318.5 119 -227.5 c 128
 119 -136.5 159.333333333 -60.6666666667 240 0 c 1
 293 0 l 1
 232.333333333 -58 202 -116 202 -174 c 0
 202 -243.333333333 241.333333333 -278 320 -278 c 0
 354.666666667 -278 389.666666667 -270.666666667 425 -256 c 1
 425 -319 l 1
 381.666666667 -349 341 -364 303 -364 c 0
EndSplineSet
EndChar

StartChar: tilde
Encoding: 732 732 274
Width: 717
GlyphClass: 2
Flags: HW
LayerCount: 2
Fore
SplineSet
249 1157 m 0
 297.568126619 1157 445.130593699 1110 494 1110 c 128
 522.666666667 1110 542 1124.33333333 552 1153 c 1
 589 1153 l 1
 579 1065.66666667 537.666666667 1022 465 1022 c 0
 435 1022 391.333333333 1029.83333333 334 1045.5 c 128
 276.666666667 1061.16666667 235.833333333 1069 211.5 1069 c 128
 187.166666667 1069 171 1055.33333333 163 1028 c 1
 125 1028 l 1
 135 1114 176.333333333 1157 249 1157 c 0
EndSplineSet
EndChar

StartChar: hungarumlaut
Encoding: 733 733 275
Width: 623
GlyphClass: 2
Flags: HW
LayerCount: 2
Fore
SplineSet
335 985 m 1
 394 1234 l 1
 520 1234 l 1
 366 985 l 1
 335 985 l 1
125 985 m 1
 184 1234 l 1
 310 1234 l 1
 156 985 l 1
 125 985 l 1
EndSplineSet
EndChar

StartChar: dotaccentcmb
Encoding: 775 775 276
Width: 397
GlyphClass: 2
Flags: HW
LayerCount: 2
Fore
SplineSet
257 1184 m 1
 257 1064 l 1
 141 1064 l 1
 141 1184 l 1
 257 1184 l 1
EndSplineSet
EndChar

StartChar: uni030F
Encoding: 783 783 277
Width: 627
GlyphClass: 2
Flags: HW
LayerCount: 2
Fore
SplineSet
258 985 m 1
 104 1234 l 1
 230 1234 l 1
 289 985 l 1
 258 985 l 1
468 985 m 1
 314 1234 l 1
 440 1234 l 1
 499 985 l 1
 468 985 l 1
EndSplineSet
EndChar

StartChar: uni0311
Encoding: 785 785 278
Width: 854
GlyphClass: 2
Flags: HW
LayerCount: 2
Fore
SplineSet
131 1080 m 1
 145.666666667 1208 255.666666667 1272 461 1272 c 0
 585.226006938 1272 707.918101034 1192.50433111 721 1080 c 1
 642 1080 l 1
 626 1172 555.333333333 1218 430 1218 c 128
 304.666666667 1218 234 1172 218 1080 c 1
 131 1080 l 1
EndSplineSet
EndChar

StartChar: uni0326
Encoding: 806 806 279
Width: 412
GlyphClass: 2
Flags: HW
LayerCount: 2
Fore
SplineSet
274 116 m 1
 274 -6 l 2
 274 -122 229 -180 139 -180 c 1
 139 -136 l 1
 203.625373386 -115.374880834 210 -90.0727913228 210 -4 c 1
 148 -4 l 1
 148 116 l 1
 274 116 l 1
EndSplineSet
EndChar

StartChar: pi
Encoding: 960 960 280
Width: 1137
GlyphClass: 2
Flags: HW
LayerCount: 2
Fore
SplineSet
168 709 m 1
 168 805.96155783 197.139491225 836 282 836 c 2
 963 836 l 1
 963 806 l 1
 855 806 l 1
 855 168 l 2
 855 88.6666666667 879 49 927 49 c 0
 942.333333333 49 961 52 983 58 c 1
 983 13 l 1
 947 -4.33333333333 915 -13 887 -13 c 0
 807.666666667 -13 768 51 768 179 c 2
 769 806 l 1
 407 806 l 1
 372 308 l 2
 364 193.333333333 344.5 112.666666667 313.5 66 c 128
 282.5 19.3333333333 232 -4 162 -4 c 1
 162 53 l 1
 253.941496751 54.1212377653 271.372868988 116.96833925 277.5 208 c 128
 279.833333333 242.666666667 283 283.333333333 287 330 c 2
 330 806 l 1
 281 806 l 2
 235 806 209.666666667 773.666666667 205 709 c 1
 168 709 l 1
EndSplineSet
EndChar

StartChar: endash
Encoding: 8211 8211 281
Width: 995
GlyphClass: 2
Flags: HW
LayerCount: 2
Fore
SplineSet
859 60 m 1
 859 0 l 1
 143 0 l 1
 143 60 l 1
 859 60 l 1
EndSplineSet
EndChar

StartChar: emdash
Encoding: 8212 8212 282
Width: 1358
GlyphClass: 2
Flags: HW
LayerCount: 2
Fore
SplineSet
1220 60 m 1
 1220 0 l 1
 143 0 l 1
 143 60 l 1
 1220 60 l 1
EndSplineSet
EndChar

StartChar: quoteleft
Encoding: 8216 8216 283
Width: 401
GlyphClass: 2
Flags: HW
LayerCount: 2
Fore
SplineSet
135 959 m 1
 135 1081 l 2
 135 1197 180.333333333 1255 271 1255 c 1
 271 1211 l 1
 206.374626614 1190.37488083 200 1165.07279132 200 1079 c 1
 261 1079 l 1
 261 959 l 1
 135 959 l 1
EndSplineSet
EndChar

StartChar: quoteright
Encoding: 8217 8217 284
Width: 401
GlyphClass: 2
Flags: HW
LayerCount: 2
Fore
SplineSet
269 1234 m 1
 269 1111 l 2
 269 995 223.666666667 937 133 937 c 1
 133 982 l 1
 197.983921199 1002.73954932 204 1027.04289191 204 1114 c 1
 143 1114 l 1
 143 1234 l 1
 269 1234 l 1
EndSplineSet
EndChar

StartChar: quotesinglbase
Encoding: 8218 8218 285
Width: 412
GlyphClass: 2
Flags: HW
LayerCount: 2
Fore
SplineSet
274 116 m 1
 274 -6 l 2
 274 -122 229 -180 139 -180 c 1
 139 -136 l 1
 203.625373386 -115.374880834 210 -90.0727913228 210 -4 c 1
 148 -4 l 1
 148 116 l 1
 274 116 l 1
EndSplineSet
EndChar

StartChar: quotedblleft
Encoding: 8220 8220 286
Width: 627
GlyphClass: 2
Flags: HW
LayerCount: 2
Fore
SplineSet
361 959 m 1
 361 1081 l 2
 361 1197 406.333333333 1255 497 1255 c 1
 497 1211 l 1
 432.374626614 1190.37488083 426 1165.07279132 426 1079 c 1
 487 1079 l 1
 487 959 l 1
 361 959 l 1
135 959 m 1
 135 1081 l 2
 135 1197 180.333333333 1255 271 1255 c 1
 271 1211 l 1
 206.374626614 1190.37488083 200 1165.07279132 200 1079 c 1
 261 1079 l 1
 261 959 l 1
 135 959 l 1
EndSplineSet
EndChar

StartChar: quotedblright
Encoding: 8221 8221 287
Width: 627
GlyphClass: 2
Flags: HW
LayerCount: 2
Fore
SplineSet
269 1234 m 1
 269 1111 l 2
 269 995 223.666666667 937 133 937 c 1
 133 982 l 1
 197.983921199 1002.73954932 204 1027.04289191 204 1114 c 1
 143 1114 l 1
 143 1234 l 1
 269 1234 l 1
495 1234 m 1
 495 1111 l 2
 495 995 449.666666667 937 359 937 c 1
 359 982 l 1
 423.983921199 1002.73954932 430 1027.04289191 430 1114 c 1
 369 1114 l 1
 369 1234 l 1
 495 1234 l 1
EndSplineSet
EndChar

StartChar: quotedblbase
Encoding: 8222 8222 288
Width: 664
GlyphClass: 2
Flags: HW
LayerCount: 2
Fore
SplineSet
274 116 m 1
 274 -6 l 2
 274 -122 229 -180 139 -180 c 1
 139 -136 l 1
 203.625373386 -115.374880834 210 -90.0727913228 210 -4 c 1
 148 -4 l 1
 148 116 l 1
 274 116 l 1
525 116 m 1
 525 -6 l 2
 525 -122 480 -180 390 -180 c 1
 390 -136 l 1
 453.510669586 -115.160561542 460 -78.4566922673 460 -4 c 1
 399 -4 l 1
 399 116 l 1
 525 116 l 1
EndSplineSet
EndChar

StartChar: dagger
Encoding: 8224 8224 289
Width: 580
GlyphClass: 2
Flags: HW
LayerCount: 2
Fore
SplineSet
269 2 m 1
 243 590 l 1
 243 694.666666667 251.666666667 793.666666667 269 887 c 1
 39 862 l 1
 39 941 l 1
 269 923 l 1
 236 1210 l 1
 342 1210 l 1
 309 923 l 1
 536 941 l 1
 536 862 l 1
 309 887 l 1
 326.333333333 795.666666667 335 697.666666667 335 593 c 257
 309 2 l 1
 269 2 l 1
EndSplineSet
EndChar

StartChar: daggerdbl
Encoding: 8225 8225 290
Width: 639
GlyphClass: 2
Flags: HW
LayerCount: 2
Fore
SplineSet
302 299 m 1
 292.666666667 343 288 441 288 593 c 256
 288 742.333333333 292.666666667 840.333333333 302 887 c 1
 72 862 l 1
 72 941 l 1
 302 923 l 1
 269 1210 l 1
 375 1210 l 1
 342 923 l 1
 569 941 l 1
 569 862 l 1
 342 887 l 1
 351.333333333 825 356 726.333333333 356 591 c 128
 356 455.666666667 351.333333333 358.333333333 342 299 c 1
 569 324 l 1
 569 245 l 1
 342 263 l 1
 375 -24 l 1
 269 -24 l 1
 302 263 l 1
 72 245 l 1
 72 324 l 1
 302 299 l 1
EndSplineSet
EndChar

StartChar: bullet
Encoding: 8226 8226 291
Width: 739
GlyphClass: 2
Flags: HW
LayerCount: 2
Fore
SplineSet
129 674.5 m 128
 129 804.872562578 238.072070099 905 369 905 c 256
 499.365936617 905 610 804.011014248 610 674.5 c 128
 610 544.51245986 500.208696907 442 369 442 c 256
 237.205767681 442 129 543.644301422 129 674.5 c 128
EndSplineSet
EndChar

StartChar: ellipsis
Encoding: 8230 8230 292
Width: 926
GlyphClass: 2
Flags: HW
LayerCount: 2
Fore
SplineSet
263 120 m 1
 263 0 l 1
 147 0 l 1
 147 120 l 1
 263 120 l 1
524 120 m 1
 524 0 l 1
 407 0 l 1
 407 120 l 1
 524 120 l 1
784 120 m 1
 784 0 l 1
 668 0 l 1
 668 120 l 1
 784 120 l 1
EndSplineSet
EndChar

StartChar: guilsinglleft
Encoding: 8249 8249 293
Width: 512
GlyphClass: 2
Flags: HW
LayerCount: 2
Fore
SplineSet
348 1043 m 1
 396 1043 l 1
 184 664 l 1
 396 281 l 1
 348 281 l 1
 76 664 l 1
 348 1043 l 1
EndSplineSet
EndChar

StartChar: guilsinglright
Encoding: 8250 8250 294
Width: 512
GlyphClass: 2
Flags: HW
LayerCount: 2
Fore
SplineSet
437 664 m 1
 165 281 l 1
 117 281 l 1
 329 664 l 1
 117 1043 l 1
 165 1043 l 1
 437 664 l 1
EndSplineSet
EndChar

StartChar: fraction
Encoding: 8260 8260 295
Width: 537
GlyphClass: 2
Flags: HW
LayerCount: 2
Fore
SplineSet
415 1255 m 1
 486 1255 l 1
 118 -23 l 1
 43 -23 l 1
 415 1255 l 1
EndSplineSet
EndChar

StartChar: foursuperior
Encoding: 8308 8308 296
Width: 770
GlyphClass: 2
Flags: HW
LayerCount: 2
Fore
SplineSet
74 316 m 1
 412 866 l 1
 504 866 l 1
 504 323 l 1
 682 323 l 1
 682 260 l 1
 504 260 l 1
 504 61 l 1
 616 61 l 1
 616 0 l 1
 319 0 l 1
 319 61 l 1
 431 61 l 1
 431 260 l 1
 83 260 l 1
 74 316 l 1
431 323 m 1
 431 768 l 1
 339.64530273 614.846536929 254.013212469 477.500290059 164 323 c 1
 431 323 l 1
EndSplineSet
EndChar

StartChar: Euro
Encoding: 8364 8364 297
Width: 1303
GlyphClass: 2
Flags: HW
LayerCount: 2
Fore
SplineSet
280 455 m 1
 332.449128365 218.369048773 517.089745392 47 793 47 c 128
 920.333333333 47 1047.66666667 89.3333333333 1175 174 c 1
 1209 110 l 1
 1075.66666667 22 932.333333333 -22 779 -22 c 0
 553 -22 384.666666667 67 274 245 c 0
 236.666666667 305 210 375 194 455 c 1
 10 455 l 1
 10 517 l 1
 184 517 l 1
 180 569 178 608.833333333 178 636.5 c 128
 178 664.166666667 181 696 187 732 c 1
 10 732 l 1
 10 794 l 1
 200 794 l 1
 235.333333333 929.333333333 307 1040 415 1126 c 128
 523 1212 644.333333333 1255 779 1255 c 128
 913.666666667 1255 1036.33333333 1203 1147 1099 c 1
 1147 1237 l 1
 1222 1237 l 1
 1222 1007 l 1
 1160 994 l 1
 1047.33333333 1116.66666667 911.833333333 1178 753.5 1178 c 128
 595.166666667 1178 464 1102.66666667 360 952 c 0
 328 905.333333333 303.333333333 852.666666667 286 794 c 1
 901 794 l 1
 901 732 l 1
 272 732 l 1
 265.333333333 696 262 659.333333333 262 622 c 256
 262 590.666666667 264.333333333 555.666666667 269 517 c 1
 901 517 l 1
 901 455 l 1
 280 455 l 1
EndSplineSet
EndChar

StartChar: trademark
Encoding: 8482 8482 298
Width: 1634
GlyphClass: 2
Flags: HW
LayerCount: 2
Fore
SplineSet
642 1236 m 1
 642 1026 l 1
 585 1026 l 1
 585 1183 l 1
 393 1183 l 1
 393 660 l 1
 480 660 l 1
 480 612 l 1
 248 612 l 1
 248 660 l 1
 334 660 l 1
 334 1183 l 1
 146 1183 l 1
 146 1026 l 1
 90 1026 l 1
 90 1236 l 1
 642 1236 l 1
1144 760 m 1
 1365 1236 l 1
 1506 1236 l 1
 1506 1187 l 1
 1428 1187 l 1
 1428 661 l 1
 1506 661 l 1
 1506 612 l 1
 1291 612 l 1
 1291 661 l 1
 1370 661 l 1
 1370 1114 l 1
 1144 638 l 1
 910 1115 l 1
 910 661 l 1
 990 661 l 1
 990 612 l 1
 774 612 l 1
 774 661 l 1
 853 661 l 1
 853 1187 l 1
 774 1187 l 1
 774 1236 l 1
 915 1236 l 1
 1144 760 l 1
EndSplineSet
EndChar

StartChar: partialdiff
Encoding: 8706 8706 299
Width: 887
GlyphClass: 2
Flags: HW
LayerCount: 2
Fore
SplineSet
131 363 m 128
 131 177.608580865 256.608874703 49 447 49 c 128
 638.33841071 49 758 169.690743338 758 356.5 c 128
 758 446.833333333 726.833333333 519.666666667 664.5 575 c 128
 602.166666667 630.333333333 528.333333333 658 443 658 c 256
 357.666666667 658 293.333333333 639 250 601 c 0
 170.666666667 531.666666667 131 452.333333333 131 363 c 128
343 1361 m 1
 701 697 l 1
 790.333333333 547 835 437 835 367 c 0
 835 245.666666667 795.666666667 150.333333333 717 81 c 128
 638.333333333 11.6666666667 557.333333333 -23 474 -23 c 0
 332 -23 225.666666667 15.6666666667 155 93 c 128
 84.3333333333 170.333333333 49 260.5 49 363.5 c 128
 49 466.5 86.8333333333 552.666666667 162.5 622 c 128
 238.166666667 691.333333333 318.333333333 726 403 726 c 128
 487.666666667 726 562.666666667 710 628 678 c 1
 276 1314 l 1
 343 1361 l 1
EndSplineSet
EndChar

StartChar: Delta
Encoding: 8710 8710 300
Width: 760
GlyphClass: 2
Flags: HW
LayerCount: 2
Fore
SplineSet
699 0 m 1
 63 0 l 1
 63 67 l 1
 380 1062 l 1
 699 66 l 1
 699 0 l 1
649 61 m 1
 380 935 l 1
 110 61 l 1
 649 61 l 1
EndSplineSet
EndChar

StartChar: minus
Encoding: 8722 8722 303
Width: 1233
GlyphClass: 2
Flags: HW
LayerCount: 2
Fore
SplineSet
1109 959 m 1
 1109 872 l 1
 125 872 l 1
 125 959 l 1
 1109 959 l 1
EndSplineSet
EndChar

StartChar: infinity
Encoding: 8734 8734 305
Width: 1294
GlyphClass: 2
Flags: HW
LayerCount: 2
Fore
SplineSet
647 644 m 1
 713.666666667 769.333333333 802.333333333 832 913 832 c 0
 979.666666667 832 1030.66666667 814.333333333 1066 779 c 0
 1128.66666667 715 1160 638.833333333 1160 550.5 c 128
 1160 462.166666667 1135 392.5 1085 341.5 c 128
 1035 290.5 977.333333333 265 912 265 c 0
 800.666666667 265 713.333333333 330.666666667 650 462 c 1
 580.666666667 334 488.666666667 270 374 270 c 0
 214.666666667 270 135 374 135 582 c 0
 135 640.666666667 158 697.666666667 204 753 c 128
 250 808.333333333 310.166666667 836 384.5 836 c 128
 458.833333333 836 526.666666667 801.333333333 588 732 c 0
 609.333333333 708 629 678.666666667 647 644 c 1
915 316 m 256
 1033 316 1092 401.333333333 1092 572 c 0
 1092 622 1075.66666667 669.166666667 1043 713.5 c 0
 1010.33333333 757.833333333 962 780 898 780 c 0
 820.666666667 780 745.666666667 702.666666667 673 548 c 1
 728.333333333 426 785.333333333 353 844 329 c 0
 865.333333333 320.333333333 889 316 915 316 c 256
387 785 m 0
 264.333333333 785 203 697 203 521 c 0
 203 473 218.5 427.5 249.5 384.5 c 128
 280.5 341.5 321.333333333 320 372 320 c 0
 466.666666667 320 549.666666667 397.666666667 621 553 c 1
 555 707.666666667 477 785 387 785 c 0
EndSplineSet
EndChar

StartChar: integral
Encoding: 8747 8747 306
Width: 700
GlyphClass: 2
Flags: HW
LayerCount: 2
Fore
SplineSet
701 1165 m 1
 666.333333333 1177 635.333333333 1183 608 1183 c 0
 548.666666667 1183 510 1148.66666667 492 1080 c 2
 211 60 l 2
 186.333333333 -29.3333333333 130.666666667 -77.3333333333 44 -84 c 0
 20 -85.3333333333 -3.66666666667 -86 -27 -86 c 1
 -11 -24 l 1
 85.2816491408 -24 114.584315364 -1.92243426076 132 60 c 2
 413 1078 l 2
 443 1188.66666667 505.666666667 1244 601 1244 c 0
 639.666666667 1244 677.666666667 1235.66666667 715 1219 c 1
 701 1165 l 1
EndSplineSet
EndChar

StartChar: approxequal
Encoding: 8776 8776 307
Width: 811
GlyphClass: 2
Flags: HW
LayerCount: 2
Fore
SplineSet
255 574 m 0
 315.950973967 574 509.146026592 527 567.5 527 c 128
 599.833333333 527 620.666666667 541.333333333 630 570 c 1
 667 570 l 1
 657 482.666666667 615.666666667 439 543 439 c 0
 503.666666667 439 447 446.833333333 373 462.5 c 128
 299 478.166666667 248.5 486 221.5 486 c 128
 194.5 486 177 472.333333333 169 445 c 1
 131 445 l 1
 141 531 182.333333333 574 255 574 c 0
553 638 m 0
 514.333333333 638 458 645.833333333 384 661.5 c 128
 310 677.166666667 259.166666667 685 231.5 685 c 128
 203.833333333 685 186.666666667 671.333333333 180 644 c 1
 142 644 l 1
 150.666666667 730 191.666666667 773 265 773 c 0
 303.666666667 773 357.5 765.166666667 426.5 749.5 c 128
 495.5 733.833333333 545.833333333 726 577.5 726 c 128
 609.166666667 726 630.333333333 740.333333333 641 769 c 1
 678 769 l 1
 668 681.666666667 626.333333333 638 553 638 c 0
EndSplineSet
EndChar

StartChar: notequal
Encoding: 8800 8800 308
Width: 879
GlyphClass: 2
Flags: HW
LayerCount: 2
Fore
SplineSet
468 677 m 1
 517 868 l 1
 575 868 l 1
 522 677 l 1
 797 677 l 1
 797 613 l 1
 510 613 l 1
 437 337 l 1
 797 337 l 1
 797 276 l 1
 420 276 l 1
 373 84 l 1
 313 84 l 1
 363 276 l 1
 94 276 l 1
 94 337 l 1
 381 337 l 1
 453 613 l 1
 94 613 l 1
 94 677 l 1
 468 677 l 1
EndSplineSet
EndChar

StartChar: lessequal
Encoding: 8804 8804 309
Width: 905
GlyphClass: 2
Flags: HW
LayerCount: 2
Fore
SplineSet
88 553 m 1
 88 590 l 1
 776 952 l 1
 776 882 l 1
 194 571 l 1
 776 262 l 1
 776 194 l 1
 88 553 l 1
88 58 m 1
 776 58 l 1
 776 0 l 1
 88 0 l 1
 88 58 l 1
EndSplineSet
EndChar

StartChar: greaterequal
Encoding: 8805 8805 310
Width: 903
GlyphClass: 2
Flags: HW
LayerCount: 2
Fore
SplineSet
133 194 m 1
 133 262 l 1
 715 571 l 1
 133 882 l 1
 133 952 l 1
 821 590 l 1
 821 553 l 1
 133 194 l 1
821 0 m 1
 133 0 l 1
 133 58 l 1
 821 58 l 1
 821 0 l 1
EndSplineSet
EndChar

StartChar: lozenge
Encoding: 9674 9674 311
Width: 907
GlyphClass: 2
Flags: HW
LayerCount: 2
Fore
SplineSet
481 -23 m 1
 430 -23 l 1
 29 614 l 1
 430 1254 l 1
 481 1254 l 1
 881 616 l 1
 481 -23 l 1
458 1181 m 1
 115 616 l 1
 458 47 l 1
 799 616 l 1
 458 1181 l 1
EndSplineSet
EndChar

StartChar: fi
Encoding: 64257 64257 312
Width: 1133
GlyphClass: 2
Flags: HW
LayerCount: 2
Fore
SplineSet
259 970 m 2
 259 1152.31278107 463.083804019 1248 654 1248 c 128
 762 1248 842 1218.66666667 894 1160 c 0
 911.333333333 1141.33333333 920.333333333 1120.66666667 921 1098 c 0
 921 1050 899.5 1025.83333333 856.5 1025.5 c 0
 813.5 1025.83333333 792 1046.66666667 792 1088 c 0
 792 1105.33333333 801.333333333 1119.33333333 820 1130 c 1
 776 1167.33333333 715 1186 637 1186 c 128
 495.780960383 1186 338 1108.67371761 338 972 c 2
 338 836 l 1
 901 836 l 1
 901 60 l 1
 1054 60 l 1
 1054 0 l 1
 672 0 l 1
 672 60 l 1
 822 60 l 1
 822 776 l 1
 338 776 l 1
 338 60 l 1
 529 60 l 1
 529 0 l 1
 104 0 l 1
 104 60 l 1
 259 60 l 1
 259 776 l 1
 104 776 l 1
 104 836 l 1
 259 836 l 1
 259 970 l 2
EndSplineSet
LCarets2: 1 0 
Ligature2: "'liga' Standard Ligatures lookup 0 subtable" f i
EndChar

StartChar: fl
Encoding: 64258 64258 313
Width: 1194
GlyphClass: 2
Flags: HW
LayerCount: 2
Fore
SplineSet
259 962 m 2
 259 1163.44637859 459.931429702 1253 670 1253 c 128
 786.666666667 1253 869.333333333 1228.66666667 918 1180 c 0
 934 1164 942 1145 942 1123 c 2
 942 60 l 1
 1125 60 l 1
 1125 0 l 1
 676 0 l 1
 676 60 l 1
 862 60 l 1
 862 1123 l 2
 862 1167.66666667 778 1190 610 1190 c 0
 554.666666667 1190 495.5 1170.66666667 432.5 1132 c 128
 369.5 1093.33333333 338 1037.66666667 338 965 c 2
 338 836 l 1
 541 836 l 1
 541 779 l 1
 338 779 l 1
 338 60 l 1
 529 60 l 1
 529 0 l 1
 104 0 l 1
 104 60 l 1
 259 60 l 1
 259 779 l 1
 104 779 l 1
 104 836 l 1
 259 836 l 1
 259 962 l 2
EndSplineSet
LCarets2: 1 0 
Ligature2: "'liga' Standard Ligatures lookup 0 subtable" f l
EndChar

StartChar: commaaccent
Encoding: 65537 -1 314
Width: 399
GlyphClass: 2
Flags: HW
LayerCount: 2
Fore
SplineSet
266 1237 m 1
 266 1115 l 2
 266 999 221 941 131 941 c 1
 131 985 l 1
 195.625373386 1005.62511917 202 1030.92720868 202 1117 c 1
 140 1117 l 1
 140 1237 l 1
 266 1237 l 1
EndSplineSet
EndChar

StartChar: dotaccentcmb.cap
Encoding: 65541 -1 318
Width: 389
GlyphClass: 2
Flags: HW
LayerCount: 2
Fore
SplineSet
250 1121 m 1
 250 1001 l 1
 133 1001 l 1
 133 1121 l 1
 250 1121 l 1
EndSplineSet
EndChar

